<?xml version="1.0" encoding="UTF-8" standalone="no"?>
<svg
   width="231.37233mm"
   height="99.726044mm"
   viewBox="0 0 231.37233 99.726044"
   version="1.1"
   id="svg8"
   sodipodi:docname="dppoisson_sketch.svg"
   inkscape:version="1.1 (c68e22c387, 2021-05-23)"
   xmlns:inkscape="http://www.inkscape.org/namespaces/inkscape"
   xmlns:sodipodi="http://sodipodi.sourceforge.net/DTD/sodipodi-0.dtd"
   xmlns:xlink="http://www.w3.org/1999/xlink"
   xmlns="http://www.w3.org/2000/svg"
   xmlns:svg="http://www.w3.org/2000/svg"
   xmlns:rdf="http://www.w3.org/1999/02/22-rdf-syntax-ns#"
   xmlns:cc="http://creativecommons.org/ns#"
   xmlns:dc="http://purl.org/dc/elements/1.1/">
  <defs
     id="defs2">
    <rect
       x="47.625"
       y="84.666667"
       width="121.70833"
       height="42.333333"
       id="rect11362" />
    <linearGradient
       inkscape:collect="always"
       id="linearGradient11322">
      <stop
         style="stop-color:#008c00;stop-opacity:1"
         offset="0"
         id="stop11318" />
      <stop
         style="stop-color:#000000;stop-opacity:0;"
         offset="1"
         id="stop11320" />
    </linearGradient>
    <linearGradient
       inkscape:collect="always"
       id="linearGradient11316">
      <stop
         style="stop-color:#960000;stop-opacity:1"
         offset="0"
         id="stop11312" />
      <stop
         style="stop-color:#000000;stop-opacity:0;"
         offset="1"
         id="stop11314" />
    </linearGradient>
    <rect
       x="66.145836"
       y="10.583333"
       width="71.4375"
       height="26.458332"
       id="rect9681" />
    <rect
       x="44.979168"
       y="182.5625"
       width="63.5"
       height="39.6875"
       id="rect9675" />
    <rect
       x="76.729164"
       y="140.22917"
       width="66.145836"
       height="44.979168"
       id="rect9669" />
    <rect
       x="42.333332"
       y="121.70833"
       width="58.208332"
       height="47.625"
       id="rect9659" />
    <marker
       style="overflow:visible"
       id="Arrow2Lend"
       refX="0"
       refY="0"
       orient="auto"
       inkscape:stockid="Arrow2Lend"
       inkscape:isstock="true">
      <path
         transform="matrix(-1.1,0,0,-1.1,-1.1,0)"
         d="M 8.7185878,4.0337352 -2.2072895,0.01601326 8.7185884,-4.0017078 c -1.7454984,2.3720609 -1.7354408,5.6174519 -6e-7,8.035443 z"
         style="fill:#000000;fill-opacity:1;fill-rule:evenodd;stroke:#000000;stroke-width:0.625;stroke-linejoin:round;stroke-opacity:1"
         id="path9388" />
    </marker>
    <rect
       x="-5.2916665"
       y="7.9375"
       width="57.636665"
       height="22.231134"
       id="rect9325" />
    <linearGradient
       inkscape:collect="always"
       id="linearGradient8291">
      <stop
         style="stop-color:#002eff;stop-opacity:1;"
         offset="0"
         id="stop8287" />
      <stop
         style="stop-color:#002eff;stop-opacity:0;"
         offset="1"
         id="stop8289" />
    </linearGradient>
    <radialGradient
       inkscape:collect="always"
       xlink:href="#linearGradient8291"
       id="radialGradient8293-3-2"
       cx="56.620926"
       cy="118.00417"
       fx="56.620926"
       fy="118.00417"
       r="3.96875"
       gradientUnits="userSpaceOnUse"
       gradientTransform="matrix(-1.1355545e-5,-2.794429,2.7317549,-2.9489069e-7,-284.93575,231.36981)" />
    <radialGradient
       inkscape:collect="always"
       xlink:href="#linearGradient8291"
       id="radialGradient8293-3-2-0"
       cx="56.620926"
       cy="118.00417"
       fx="56.620926"
       fy="118.00417"
       r="3.96875"
       gradientUnits="userSpaceOnUse"
       gradientTransform="matrix(-1.1355545e-5,-2.794429,2.7317549,-2.9489069e-7,-226.15155,243.08708)" />
    <radialGradient
       inkscape:collect="always"
       xlink:href="#linearGradient8291"
       id="radialGradient8293-3-2-1"
       cx="56.620926"
       cy="118.00417"
       fx="56.620926"
       fy="118.00417"
       r="3.96875"
       gradientUnits="userSpaceOnUse"
       gradientTransform="matrix(-1.1355545e-5,-2.794429,2.7317549,-2.9489069e-7,-187.03992,228.72398)" />
    <radialGradient
       inkscape:collect="always"
       xlink:href="#linearGradient8291"
       id="radialGradient8293-3-2-2"
       cx="56.620926"
       cy="118.00417"
       fx="56.620926"
       fy="118.00417"
       r="3.96875"
       gradientUnits="userSpaceOnUse"
       gradientTransform="matrix(-1.1355545e-5,-2.794429,2.7317549,-2.9489069e-7,-246.57116,223.6213)" />
    <radialGradient
       inkscape:collect="always"
       xlink:href="#linearGradient8291"
       id="radialGradient8293-3-2-6"
       cx="56.620926"
       cy="118.00417"
       fx="56.620926"
       fy="118.00417"
       r="3.96875"
       gradientUnits="userSpaceOnUse"
       gradientTransform="matrix(-1.1355545e-5,-2.794429,2.7317549,-2.9489069e-7,-269.06075,241.95314)" />
    <radialGradient
       inkscape:collect="always"
       xlink:href="#linearGradient8291"
       id="radialGradient8293-3-2-4"
       cx="56.620926"
       cy="118.00417"
       fx="56.620926"
       fy="118.00417"
       r="3.96875"
       gradientUnits="userSpaceOnUse"
       gradientTransform="matrix(-1.1355545e-5,-2.794429,2.7317549,-2.9489069e-7,-178.55894,252.02954)" />
    <radialGradient
       inkscape:collect="always"
       xlink:href="#linearGradient8291"
       id="radialGradient8293-3-2-7"
       cx="56.620926"
       cy="118.00417"
       fx="56.620926"
       fy="118.00417"
       r="3.96875"
       gradientUnits="userSpaceOnUse"
       gradientTransform="matrix(-1.1355545e-5,-2.794429,2.7317549,-2.9489069e-7,-211.47154,219.84194)" />
    <linearGradient
       inkscape:collect="always"
       xlink:href="#linearGradient11316"
       id="linearGradient9180"
       x1="56.885418"
       y1="127"
       x2="84.666664"
       y2="116.41666"
       gradientUnits="userSpaceOnUse"
       gradientTransform="translate(-28.67558,-84.923747)" />
    <linearGradient
       inkscape:collect="always"
       xlink:href="#linearGradient11316"
       id="linearGradient9224"
       gradientUnits="userSpaceOnUse"
       x1="56.885418"
       y1="127"
       x2="84.666664"
       y2="116.41666"
       gradientTransform="translate(116.84525,-84.923747)" />
    <linearGradient
       inkscape:collect="always"
       xlink:href="#linearGradient11322"
       id="linearGradient9254"
       gradientUnits="userSpaceOnUse"
       gradientTransform="translate(-29.204746,-26.715416)"
       x1="56.885418"
       y1="127"
       x2="84.666664"
       y2="116.41666" />
    <linearGradient
       inkscape:collect="always"
       xlink:href="#linearGradient11322"
       id="linearGradient9269"
       gradientUnits="userSpaceOnUse"
       gradientTransform="translate(116.31609,-26.715416)"
       x1="56.885418"
       y1="127"
       x2="84.666664"
       y2="116.41666" />
    <radialGradient
       inkscape:collect="always"
       xlink:href="#linearGradient8291"
       id="radialGradient8293-3-2-1-1"
       cx="56.620926"
       cy="118.00417"
       fx="56.620926"
       fy="118.00417"
       r="3.96875"
       gradientUnits="userSpaceOnUse"
       gradientTransform="matrix(-1.1355545e-5,-2.794429,2.7317549,-2.9489069e-7,-152.5168,216.87026)" />
    <rect
       x="-5.2916665"
       y="7.9375"
       width="375.07725"
       height="45.26352"
       id="rect9325-8" />
    <rect
       x="-5.2916665"
       y="7.9375"
       width="57.636665"
       height="22.231134"
       id="rect9338" />
    <g
       id="g7095">
      <symbol
         overflow="visible"
         id="symbol3811">
        <path
           style="stroke:none"
           d=""
           id="path3280" />
      </symbol>
      <symbol
         overflow="visible"
         id="symbol3809">
        <path
           style="stroke:none"
           d="M 1.40625,-2.265625 C 1.734375,-2.125 2.03125,-2.125 2.265625,-2.125 c 0.25,0 0.8125,0 0.8125,-0.3125 0,-0.234375 -0.359375,-0.265625 -0.734375,-0.265625 -0.203125,0 -0.5625,0.015625 -0.921875,0.1875 C 1.1875,-2.625 1.015625,-2.828125 1.015625,-3.09375 c 0,-0.609375 0.984375,-0.96875 1.875,-0.96875 0.15625,0 0.515625,0 0.921875,0.28125 0.109375,0.078125 0.125,0.109375 0.1875,0.109375 0.140625,0 0.28125,-0.140625 0.28125,-0.28125 0,-0.1875 -0.609375,-0.5625 -1.296875,-0.5625 -1.140625,0 -2.21875,0.671875 -2.21875,1.421875 0,0.4375 0.359375,0.6875 0.40625,0.71875 -0.59375,0.328125 -0.90625,0.875 -0.90625,1.34375 0,0.640625 0.5625,1.25 1.625,1.25 1.3125,0 1.875,-0.875 1.875,-1.03125 0,-0.0625 -0.0625,-0.09375 -0.109375,-0.09375 -0.0625,0 -0.09375,0.03125 -0.109375,0.0625 -0.140625,0.234375 -0.375,0.609375 -1.578125,0.609375 -0.609375,0 -1.453125,-0.15625 -1.453125,-0.859375 0,-0.34375 0.28125,-0.875 0.890625,-1.171875 z m 0.328125,-0.125 c 0.234375,-0.078125 0.4375,-0.09375 0.609375,-0.09375 0.25,0 0.28125,0.015625 0.46875,0.0625 -0.15625,0.0625 -0.171875,0.078125 -0.546875,0.078125 -0.21875,0 -0.34375,0 -0.53125,-0.046875 z m 0,0"
           id="path3980" />
      </symbol>
      <symbol
         overflow="visible"
         id="symbol1954">
        <path
           style="stroke:none"
           d=""
           id="path6013" />
      </symbol>
      <symbol
         overflow="visible"
         id="symbol316">
        <path
           style="stroke:none"
           d="m 6.84375,-3.265625 c 0.15625,0 0.34375,0 0.34375,-0.1875 C 7.1875,-3.65625 7,-3.65625 6.859375,-3.65625 h -5.96875 c -0.140625,0 -0.328125,0 -0.328125,0.203125 0,0.1875 0.1875,0.1875 0.328125,0.1875 z m 0.015625,1.9375 c 0.140625,0 0.328125,0 0.328125,-0.203125 0,-0.1875 -0.1875,-0.1875 -0.34375,-0.1875 H 0.890625 c -0.140625,0 -0.328125,0 -0.328125,0.1875 0,0.203125 0.1875,0.203125 0.328125,0.203125 z m 0,0"
           id="path2646" />
      </symbol>
      <symbol
         overflow="visible"
         id="symbol1320">
        <path
           style="stroke:none"
           d=""
           id="path8241" />
      </symbol>
      <symbol
         overflow="visible"
         id="symbol2354">
        <path
           style="stroke:none"
           d="m 1.71875,-2.75 h 0.703125 c 0.140625,0 0.21875,0 0.21875,-0.15625 C 2.640625,-3 2.5625,-3 2.4375,-3 H 1.78125 l 0.25,-1.03125 C 2.046875,-4.0625 2.0625,-4.109375 2.0625,-4.125 c 0,-0.140625 -0.109375,-0.234375 -0.25,-0.234375 -0.171875,0 -0.265625,0.125 -0.328125,0.296875 C 1.4375,-3.875 1.53125,-4.21875 1.21875,-3 H 0.515625 c -0.125,0 -0.21875,0 -0.21875,0.15625 C 0.296875,-2.75 0.375,-2.75 0.5,-2.75 H 1.15625 L 0.75,-1.109375 C 0.703125,-0.9375 0.640625,-0.6875 0.640625,-0.59375 c 0,0.40625 0.359375,0.65625 0.75,0.65625 0.78125,0 1.21875,-0.96875 1.21875,-1.0625 0,-0.09375 -0.09375,-0.09375 -0.109375,-0.09375 -0.09375,0 -0.09375,0.015625 -0.15625,0.140625 -0.1875,0.4375 -0.546875,0.828125 -0.921875,0.828125 -0.15625,0 -0.25,-0.09375 -0.25,-0.34375 0,-0.0625 0.03125,-0.21875 0.046875,-0.28125 z m 0,0"
           id="path364" />
      </symbol>
    </g>
    <g
       id="g6367">
      <symbol
         overflow="visible"
         id="symbol8551">
        <path
           style="stroke:none"
           d=""
           id="path5539" />
      </symbol>
      <symbol
         overflow="visible"
         id="symbol6851">
        <path
           style="stroke:none"
           d="M 1.40625,-2.265625 C 1.734375,-2.125 2.03125,-2.125 2.265625,-2.125 c 0.25,0 0.8125,0 0.8125,-0.3125 0,-0.234375 -0.359375,-0.265625 -0.734375,-0.265625 -0.203125,0 -0.5625,0.015625 -0.921875,0.1875 C 1.1875,-2.625 1.015625,-2.828125 1.015625,-3.09375 c 0,-0.609375 0.984375,-0.96875 1.875,-0.96875 0.15625,0 0.515625,0 0.921875,0.28125 0.109375,0.078125 0.125,0.109375 0.1875,0.109375 0.140625,0 0.28125,-0.140625 0.28125,-0.28125 0,-0.1875 -0.609375,-0.5625 -1.296875,-0.5625 -1.140625,0 -2.21875,0.671875 -2.21875,1.421875 0,0.4375 0.359375,0.6875 0.40625,0.71875 -0.59375,0.328125 -0.90625,0.875 -0.90625,1.34375 0,0.640625 0.5625,1.25 1.625,1.25 1.3125,0 1.875,-0.875 1.875,-1.03125 0,-0.0625 -0.0625,-0.09375 -0.109375,-0.09375 -0.0625,0 -0.09375,0.03125 -0.109375,0.0625 -0.140625,0.234375 -0.375,0.609375 -1.578125,0.609375 -0.609375,0 -1.453125,-0.15625 -1.453125,-0.859375 0,-0.34375 0.28125,-0.875 0.890625,-1.171875 z m 0.328125,-0.125 c 0.234375,-0.078125 0.4375,-0.09375 0.609375,-0.09375 0.25,0 0.28125,0.015625 0.46875,0.0625 -0.15625,0.0625 -0.171875,0.078125 -0.546875,0.078125 -0.21875,0 -0.34375,0 -0.53125,-0.046875 z m 0,0"
           id="path9622" />
      </symbol>
      <symbol
         overflow="visible"
         id="symbol5868">
        <path
           style="stroke:none"
           d=""
           id="path5737" />
      </symbol>
      <symbol
         overflow="visible"
         id="symbol1977">
        <path
           style="stroke:none"
           d="m 6.84375,-3.265625 c 0.15625,0 0.34375,0 0.34375,-0.1875 C 7.1875,-3.65625 7,-3.65625 6.859375,-3.65625 h -5.96875 c -0.140625,0 -0.328125,0 -0.328125,0.203125 0,0.1875 0.1875,0.1875 0.328125,0.1875 z m 0.015625,1.9375 c 0.140625,0 0.328125,0 0.328125,-0.203125 0,-0.1875 -0.1875,-0.1875 -0.34375,-0.1875 H 0.890625 c -0.140625,0 -0.328125,0 -0.328125,0.1875 0,0.203125 0.1875,0.203125 0.328125,0.203125 z m 0,0"
           id="path9465" />
      </symbol>
      <symbol
         overflow="visible"
         id="symbol6111">
        <path
           style="stroke:none"
           d=""
           id="path7336" />
      </symbol>
      <symbol
         overflow="visible"
         id="symbol1068">
        <path
           style="stroke:none"
           d="m 1.84375,-4.625 c 0,-0.015625 0.03125,-0.109375 0.03125,-0.109375 0,-0.046875 -0.03125,-0.109375 -0.125,-0.109375 -0.140625,0 -0.71875,0.0625 -0.890625,0.078125 -0.046875,0 -0.15625,0.015625 -0.15625,0.15625 0,0.09375 0.109375,0.09375 0.1875,0.09375 0.328125,0 0.328125,0.0625 0.328125,0.109375 0,0.046875 -0.0625,0.328125 -0.109375,0.484375 l -0.15625,0.640625 c -0.0625,0.25 -0.4375,1.765625 -0.453125,1.859375 -0.046875,0.171875 -0.046875,0.265625 -0.046875,0.34375 0,0.703125 0.453125,1.140625 1.03125,1.140625 0.875,0 1.796875,-0.9375 1.796875,-1.96875 0,-0.8125 -0.5625,-1.171875 -1.046875,-1.171875 -0.359375,0 -0.671875,0.203125 -0.875,0.390625 z m -0.359375,4.5 c -0.328125,0 -0.53125,-0.296875 -0.53125,-0.71875 0,-0.25 0.0625,-0.484375 0.265625,-1.28125 C 1.25,-2.25 1.25,-2.265625 1.390625,-2.421875 1.65625,-2.71875 1.96875,-2.875 2.21875,-2.875 c 0.265625,0 0.5,0.203125 0.5,0.671875 0,0.28125 -0.140625,1 -0.359375,1.40625 C 2.1875,-0.453125 1.84375,-0.125 1.484375,-0.125 Z m 0,0"
           id="path9411" />
      </symbol>
    </g>
    <g
       id="g2269">
      <symbol
         overflow="visible"
         id="symbol6082">
        <path
           style="stroke:none"
           d=""
           id="path1849" />
      </symbol>
      <symbol
         overflow="visible"
         id="symbol4839">
        <path
           style="stroke:none"
           d="M 1.40625,-2.265625 C 1.734375,-2.125 2.03125,-2.125 2.265625,-2.125 c 0.25,0 0.8125,0 0.8125,-0.3125 0,-0.234375 -0.359375,-0.265625 -0.734375,-0.265625 -0.203125,0 -0.5625,0.015625 -0.921875,0.1875 C 1.1875,-2.625 1.015625,-2.828125 1.015625,-3.09375 c 0,-0.609375 0.984375,-0.96875 1.875,-0.96875 0.15625,0 0.515625,0 0.921875,0.28125 0.109375,0.078125 0.125,0.109375 0.1875,0.109375 0.140625,0 0.28125,-0.140625 0.28125,-0.28125 0,-0.1875 -0.609375,-0.5625 -1.296875,-0.5625 -1.140625,0 -2.21875,0.671875 -2.21875,1.421875 0,0.4375 0.359375,0.6875 0.40625,0.71875 -0.59375,0.328125 -0.90625,0.875 -0.90625,1.34375 0,0.640625 0.5625,1.25 1.625,1.25 1.3125,0 1.875,-0.875 1.875,-1.03125 0,-0.0625 -0.0625,-0.09375 -0.109375,-0.09375 -0.0625,0 -0.09375,0.03125 -0.109375,0.0625 -0.140625,0.234375 -0.375,0.609375 -1.578125,0.609375 -0.609375,0 -1.453125,-0.15625 -1.453125,-0.859375 0,-0.34375 0.28125,-0.875 0.890625,-1.171875 z m 0.328125,-0.125 c 0.234375,-0.078125 0.4375,-0.09375 0.609375,-0.09375 0.25,0 0.28125,0.015625 0.46875,0.0625 -0.15625,0.0625 -0.171875,0.078125 -0.546875,0.078125 -0.21875,0 -0.34375,0 -0.53125,-0.046875 z m 0,0"
           id="path3167" />
      </symbol>
      <symbol
         overflow="visible"
         id="symbol1711">
        <path
           style="stroke:none"
           d=""
           id="path4149" />
      </symbol>
      <symbol
         overflow="visible"
         id="symbol9401">
        <path
           style="stroke:none"
           d="m 6.84375,-3.265625 c 0.15625,0 0.34375,0 0.34375,-0.1875 C 7.1875,-3.65625 7,-3.65625 6.859375,-3.65625 h -5.96875 c -0.140625,0 -0.328125,0 -0.328125,0.203125 0,0.1875 0.1875,0.1875 0.328125,0.1875 z m 0.015625,1.9375 c 0.140625,0 0.328125,0 0.328125,-0.203125 0,-0.1875 -0.1875,-0.1875 -0.34375,-0.1875 H 0.890625 c -0.140625,0 -0.328125,0 -0.328125,0.1875 0,0.203125 0.1875,0.203125 0.328125,0.203125 z m 0,0"
           id="path3261" />
      </symbol>
      <symbol
         overflow="visible"
         id="symbol9997">
        <path
           style="stroke:none"
           d=""
           id="path8932" />
      </symbol>
      <symbol
         overflow="visible"
         id="symbol5670">
        <path
           style="stroke:none"
           d="M 3.59375,-2.21875 C 3.59375,-2.984375 3.5,-3.546875 3.1875,-4.03125 2.96875,-4.34375 2.53125,-4.625 1.984375,-4.625 c -1.625,0 -1.625,1.90625 -1.625,2.40625 0,0.5 0,2.359375 1.625,2.359375 1.609375,0 1.609375,-1.859375 1.609375,-2.359375 z M 1.984375,-0.0625 c -0.328125,0 -0.75,-0.1875 -0.890625,-0.75 C 1,-1.21875 1,-1.796875 1,-2.3125 1,-2.828125 1,-3.359375 1.09375,-3.734375 1.25,-4.28125 1.6875,-4.4375 1.984375,-4.4375 c 0.375,0 0.734375,0.234375 0.859375,0.640625 0.109375,0.375 0.125,0.875 0.125,1.484375 0,0.515625 0,1.03125 -0.09375,1.46875 -0.140625,0.640625 -0.609375,0.78125 -0.890625,0.78125 z m 0,0"
           id="path1825" />
      </symbol>
    </g>
    <g
       id="g6542">
      <symbol
         overflow="visible"
         id="symbol2650">
        <path
           style="stroke:none"
           d=""
           id="path8499" />
      </symbol>
      <symbol
         overflow="visible"
         id="symbol6522">
        <path
           style="stroke:none"
           d="m 3.890625,-4 c 0.09375,-0.109375 0.09375,-0.125 0.09375,-0.171875 0,-0.125 -0.09375,-0.125 -0.265625,-0.125 H 0.53125 L 0.421875,-2.6875 h 0.25 c 0.0625,-1.015625 0.25,-1.390625 1.34375,-1.390625 H 3.15625 L 0.375,-0.3125 C 0.28125,-0.203125 0.28125,-0.1875 0.28125,-0.140625 0.28125,0 0.34375,0 0.53125,0 H 3.828125 L 4,-1.859375 H 3.75 C 3.65625,-0.6875 3.453125,-0.25 2.296875,-0.25 h -1.1875 z m 0,0"
           id="path7240" />
      </symbol>
      <symbol
         overflow="visible"
         id="symbol3401">
        <path
           style="stroke:none"
           d="m 6.84375,-3.265625 c 0.15625,0 0.34375,0 0.34375,-0.1875 C 7.1875,-3.65625 7,-3.65625 6.859375,-3.65625 h -5.96875 c -0.140625,0 -0.328125,0 -0.328125,0.203125 0,0.1875 0.1875,0.1875 0.328125,0.1875 z m 0.015625,1.9375 c 0.140625,0 0.328125,0 0.328125,-0.203125 0,-0.1875 -0.1875,-0.1875 -0.34375,-0.1875 H 0.890625 c -0.140625,0 -0.328125,0 -0.328125,0.1875 0,0.203125 0.1875,0.203125 0.328125,0.203125 z m 0,0"
           id="path4649" />
      </symbol>
      <symbol
         overflow="visible"
         id="symbol9263">
        <path
           style="stroke:none"
           d="M 6.109375,-6.03125 C 6.109375,-6.390625 6.125,-6.5 6.890625,-6.5 h 0.25 v -0.3125 c -0.359375,0.03125 -1.09375,0.03125 -1.46875,0.03125 -0.375,0 -1.125,0 -1.46875,-0.03125 V -6.5 H 4.4375 c 0.765625,0 0.78125,0.109375 0.78125,0.46875 v 2.328125 H 2.25 V -6.03125 C 2.25,-6.390625 2.265625,-6.5 3.03125,-6.5 h 0.234375 v -0.3125 c -0.34375,0.03125 -1.078125,0.03125 -1.46875,0.03125 -0.375,0 -1.125,0 -1.46875,-0.03125 V -6.5 H 0.5625 c 0.765625,0 0.796875,0.109375 0.796875,0.46875 v 5.25 c 0,0.359375 -0.03125,0.46875 -0.796875,0.46875 H 0.328125 V 0 c 0.34375,-0.03125 1.09375,-0.03125 1.46875,-0.03125 0.375,0 1.125,0 1.46875,0.03125 V -0.3125 H 3.03125 C 2.265625,-0.3125 2.25,-0.421875 2.25,-0.78125 v -2.609375 h 2.96875 v 2.609375 c 0,0.359375 -0.015625,0.46875 -0.78125,0.46875 H 4.203125 V 0 c 0.34375,-0.03125 1.078125,-0.03125 1.453125,-0.03125 0.390625,0 1.125,0 1.484375,0.03125 v -0.3125 h -0.25 c -0.765625,0 -0.78125,-0.109375 -0.78125,-0.46875 z m 0,0"
           id="path6994" />
      </symbol>
      <symbol
         overflow="visible"
         id="symbol5379">
        <path
           style="stroke:none"
           d="m 4.359375,-7.09375 c 0.0625,-0.140625 0.0625,-0.15625 0.0625,-0.1875 0,-0.109375 -0.09375,-0.203125 -0.203125,-0.203125 C 4.078125,-7.484375 4.03125,-7.375 4,-7.28125 L 0.609375,2.109375 C 0.5625,2.25 0.5625,2.265625 0.5625,2.296875 0.5625,2.40625 0.640625,2.5 0.75,2.5 0.890625,2.5 0.9375,2.390625 0.96875,2.296875 Z m 0,0"
           id="path4607" />
      </symbol>
      <symbol
         overflow="visible"
         id="symbol1156">
        <path
           style="stroke:none"
           d="m 1.265625,-0.765625 1.0625,-1.03125 c 1.546875,-1.375 2.140625,-1.90625 2.140625,-2.90625 0,-1.140625 -0.890625,-1.9375 -2.109375,-1.9375 -1.125,0 -1.859375,0.921875 -1.859375,1.8125 0,0.546875 0.5,0.546875 0.53125,0.546875 0.171875,0 0.515625,-0.109375 0.515625,-0.53125 0,-0.25 -0.1875,-0.515625 -0.53125,-0.515625 -0.078125,0 -0.09375,0 -0.125,0.015625 0.21875,-0.65625 0.765625,-1.015625 1.34375,-1.015625 0.90625,0 1.328125,0.8125 1.328125,1.625 C 3.5625,-3.90625 3.078125,-3.125 2.515625,-2.5 l -1.90625,2.125 C 0.5,-0.265625 0.5,-0.234375 0.5,0 H 4.203125 L 4.46875,-1.734375 H 4.234375 C 4.171875,-1.4375 4.109375,-1 4,-0.84375 3.9375,-0.765625 3.28125,-0.765625 3.0625,-0.765625 Z m 0,0"
           id="path8194" />
      </symbol>
    </g>
    <g
       id="g2255">
      <symbol
         overflow="visible"
         id="symbol4348">
        <path
           style="stroke:none"
           d=""
           id="path8830" />
      </symbol>
      <symbol
         overflow="visible"
         id="symbol8873">
        <path
           style="stroke:none"
           d="m 3.890625,-4 c 0.09375,-0.109375 0.09375,-0.125 0.09375,-0.171875 0,-0.125 -0.09375,-0.125 -0.265625,-0.125 H 0.53125 L 0.421875,-2.6875 h 0.25 c 0.0625,-1.015625 0.25,-1.390625 1.34375,-1.390625 H 3.15625 L 0.375,-0.3125 C 0.28125,-0.203125 0.28125,-0.1875 0.28125,-0.140625 0.28125,0 0.34375,0 0.53125,0 H 3.828125 L 4,-1.859375 H 3.75 C 3.65625,-0.6875 3.453125,-0.25 2.296875,-0.25 h -1.1875 z m 0,0"
           id="path1613" />
      </symbol>
      <symbol
         overflow="visible"
         id="symbol5710">
        <path
           style="stroke:none"
           d="m 6.84375,-3.265625 c 0.15625,0 0.34375,0 0.34375,-0.1875 C 7.1875,-3.65625 7,-3.65625 6.859375,-3.65625 h -5.96875 c -0.140625,0 -0.328125,0 -0.328125,0.203125 0,0.1875 0.1875,0.1875 0.328125,0.1875 z m 0.015625,1.9375 c 0.140625,0 0.328125,0 0.328125,-0.203125 0,-0.1875 -0.1875,-0.1875 -0.34375,-0.1875 H 0.890625 c -0.140625,0 -0.328125,0 -0.328125,0.1875 0,0.203125 0.1875,0.203125 0.328125,0.203125 z m 0,0"
           id="path903" />
      </symbol>
      <symbol
         overflow="visible"
         id="symbol2059">
        <path
           style="stroke:none"
           d="M 2.75,-1.859375 V -2.4375 H 0.109375 v 0.578125 z m 0,0"
           id="path3469" />
      </symbol>
      <symbol
         overflow="visible"
         id="symbol5692">
        <path
           style="stroke:none"
           d="M 6.109375,-6.03125 C 6.109375,-6.390625 6.125,-6.5 6.890625,-6.5 h 0.25 v -0.3125 c -0.359375,0.03125 -1.09375,0.03125 -1.46875,0.03125 -0.375,0 -1.125,0 -1.46875,-0.03125 V -6.5 H 4.4375 c 0.765625,0 0.78125,0.109375 0.78125,0.46875 v 2.328125 H 2.25 V -6.03125 C 2.25,-6.390625 2.265625,-6.5 3.03125,-6.5 h 0.234375 v -0.3125 c -0.34375,0.03125 -1.078125,0.03125 -1.46875,0.03125 -0.375,0 -1.125,0 -1.46875,-0.03125 V -6.5 H 0.5625 c 0.765625,0 0.796875,0.109375 0.796875,0.46875 v 5.25 c 0,0.359375 -0.03125,0.46875 -0.796875,0.46875 H 0.328125 V 0 c 0.34375,-0.03125 1.09375,-0.03125 1.46875,-0.03125 0.375,0 1.125,0 1.46875,0.03125 V -0.3125 H 3.03125 C 2.265625,-0.3125 2.25,-0.421875 2.25,-0.78125 v -2.609375 h 2.96875 v 2.609375 c 0,0.359375 -0.015625,0.46875 -0.78125,0.46875 H 4.203125 V 0 c 0.34375,-0.03125 1.078125,-0.03125 1.453125,-0.03125 0.390625,0 1.125,0 1.484375,0.03125 v -0.3125 h -0.25 c -0.765625,0 -0.78125,-0.109375 -0.78125,-0.46875 z m 0,0"
           id="path6984" />
      </symbol>
      <symbol
         overflow="visible"
         id="symbol7196">
        <path
           style="stroke:none"
           d="m 4.359375,-7.09375 c 0.0625,-0.140625 0.0625,-0.15625 0.0625,-0.1875 0,-0.109375 -0.09375,-0.203125 -0.203125,-0.203125 C 4.078125,-7.484375 4.03125,-7.375 4,-7.28125 L 0.609375,2.109375 C 0.5625,2.25 0.5625,2.265625 0.5625,2.296875 0.5625,2.40625 0.640625,2.5 0.75,2.5 0.890625,2.5 0.9375,2.390625 0.96875,2.296875 Z m 0,0"
           id="path9801" />
      </symbol>
      <symbol
         overflow="visible"
         id="symbol5736">
        <path
           style="stroke:none"
           d="m 1.265625,-0.765625 1.0625,-1.03125 c 1.546875,-1.375 2.140625,-1.90625 2.140625,-2.90625 0,-1.140625 -0.890625,-1.9375 -2.109375,-1.9375 -1.125,0 -1.859375,0.921875 -1.859375,1.8125 0,0.546875 0.5,0.546875 0.53125,0.546875 0.171875,0 0.515625,-0.109375 0.515625,-0.53125 0,-0.25 -0.1875,-0.515625 -0.53125,-0.515625 -0.078125,0 -0.09375,0 -0.125,0.015625 0.21875,-0.65625 0.765625,-1.015625 1.34375,-1.015625 0.90625,0 1.328125,0.8125 1.328125,1.625 C 3.5625,-3.90625 3.078125,-3.125 2.515625,-2.5 l -1.90625,2.125 C 0.5,-0.265625 0.5,-0.234375 0.5,0 H 4.203125 L 4.46875,-1.734375 H 4.234375 C 4.171875,-1.4375 4.109375,-1 4,-0.84375 3.9375,-0.765625 3.28125,-0.765625 3.0625,-0.765625 Z m 0,0"
           id="path5975" />
      </symbol>
    </g>
    <g
       id="g7286">
      <symbol
         overflow="visible"
         id="symbol4958">
        <path
           style="stroke:none"
           d=""
           id="path4552" />
      </symbol>
      <symbol
         overflow="visible"
         id="symbol4904">
        <path
           style="stroke:none"
           d="M 3.734375,-6.03125 C 3.8125,-6.390625 3.84375,-6.5 4.78125,-6.5 c 0.296875,0 0.375,0 0.375,-0.1875 0,-0.125 -0.109375,-0.125 -0.15625,-0.125 -0.328125,0 -1.140625,0.03125 -1.46875,0.03125 -0.296875,0 -1.03125,-0.03125 -1.328125,-0.03125 -0.0625,0 -0.1875,0 -0.1875,0.203125 0,0.109375 0.09375,0.109375 0.28125,0.109375 0.015625,0 0.203125,0 0.375,0.015625 0.171875,0.03125 0.265625,0.03125 0.265625,0.171875 0,0.03125 0,0.0625 -0.03125,0.1875 L 1.5625,-0.78125 c -0.09375,0.390625 -0.109375,0.46875 -0.90625,0.46875 -0.171875,0 -0.265625,0 -0.265625,0.203125 C 0.390625,0 0.484375,0 0.65625,0 h 4.625 C 5.515625,0 5.515625,0 5.578125,-0.171875 L 6.375,-2.328125 c 0.03125,-0.109375 0.03125,-0.125 0.03125,-0.140625 0,-0.03125 -0.03125,-0.109375 -0.109375,-0.109375 -0.09375,0 -0.109375,0.0625 -0.171875,0.21875 -0.34375,0.90625 -0.78125,2.046875 -2.5,2.046875 H 2.6875 c -0.140625,0 -0.171875,0 -0.21875,0 -0.109375,-0.015625 -0.140625,-0.03125 -0.140625,-0.109375 0,-0.03125 0,-0.046875 0.046875,-0.21875 z m 0,0"
           id="path6223" />
      </symbol>
      <symbol
         overflow="visible"
         id="symbol8040">
        <path
           style="stroke:none"
           d=""
           id="path9228" />
      </symbol>
      <symbol
         overflow="visible"
         id="symbol2689">
        <path
           style="stroke:none"
           d="M 1.734375,-0.734375 C 1.671875,-0.5 1.4375,-0.125 1.078125,-0.125 c -0.015625,0 -0.234375,0 -0.375,-0.09375 0.28125,-0.09375 0.3125,-0.34375 0.3125,-0.390625 0,-0.15625 -0.125,-0.25 -0.28125,-0.25 -0.203125,0 -0.40625,0.15625 -0.40625,0.421875 0,0.34375 0.390625,0.5 0.734375,0.5 0.328125,0 0.609375,-0.1875 0.78125,-0.484375 C 2.015625,-0.0625 2.390625,0.0625 2.671875,0.0625 c 0.8125,0 1.234375,-0.859375 1.234375,-1.0625 0,-0.09375 -0.09375,-0.09375 -0.109375,-0.09375 -0.109375,0 -0.109375,0.046875 -0.140625,0.125 -0.140625,0.484375 -0.5625,0.84375 -0.953125,0.84375 -0.28125,0 -0.421875,-0.1875 -0.421875,-0.453125 0,-0.1875 0.171875,-0.8125 0.359375,-1.59375 C 2.78125,-2.703125 3.09375,-2.875 3.328125,-2.875 c 0.015625,0 0.21875,0 0.375,0.09375 -0.21875,0.0625 -0.3125,0.265625 -0.3125,0.390625 0,0.140625 0.125,0.25 0.28125,0.25 0.15625,0 0.390625,-0.125 0.390625,-0.421875 0,-0.390625 -0.453125,-0.515625 -0.71875,-0.515625 -0.359375,0 -0.640625,0.234375 -0.78125,0.5 -0.125,-0.28125 -0.453125,-0.5 -0.84375,-0.5 C 0.9375,-3.078125 0.5,-2.21875 0.5,-2 c 0,0.078125 0.09375,0.078125 0.109375,0.078125 0.09375,0 0.09375,-0.015625 0.140625,-0.109375 C 0.921875,-2.578125 1.359375,-2.875 1.703125,-2.875 1.9375,-2.875 2.125,-2.75 2.125,-2.421875 2.125,-2.28125 2.03125,-1.9375 1.96875,-1.6875 Z m 0,0"
           id="path4941" />
      </symbol>
      <symbol
         overflow="visible"
         id="symbol3893">
        <path
           style="stroke:none"
           d="M 3.875,-2.625 C 3.90625,-2.71875 3.90625,-2.734375 3.90625,-2.78125 3.90625,-2.921875 3.796875,-3 3.671875,-3 3.59375,-3 3.46875,-2.96875 3.390625,-2.84375 3.359375,-2.796875 3.3125,-2.578125 3.28125,-2.4375 L 3.125,-1.859375 c -0.03125,0.171875 -0.25,1.046875 -0.28125,1.125 0,0 -0.3125,0.609375 -0.84375,0.609375 -0.484375,0 -0.484375,-0.453125 -0.484375,-0.578125 0,-0.375 0.15625,-0.8125 0.375,-1.359375 C 1.96875,-2.28125 2,-2.359375 2,-2.484375 2,-2.8125 1.71875,-3.078125 1.34375,-3.078125 0.640625,-3.078125 0.328125,-2.125 0.328125,-2 c 0,0.078125 0.09375,0.078125 0.125,0.078125 0.09375,0 0.09375,-0.03125 0.125,-0.109375 C 0.75,-2.609375 1.046875,-2.875 1.328125,-2.875 1.4375,-2.875 1.5,-2.796875 1.5,-2.640625 c 0,0.171875 -0.0625,0.3125 -0.09375,0.40625 C 1.0625,-1.375 1,-1.125 1,-0.8125 1,-0.703125 1,-0.375 1.265625,-0.140625 1.484375,0.03125 1.78125,0.0625 1.96875,0.0625 2.25,0.0625 2.5,-0.03125 2.71875,-0.25 2.640625,0.140625 2.5625,0.4375 2.265625,0.78125 2.078125,1 1.796875,1.21875 1.421875,1.21875 c -0.046875,0 -0.375,0 -0.515625,-0.21875 0.375,-0.046875 0.375,-0.375 0.375,-0.390625 0,-0.21875 -0.203125,-0.265625 -0.265625,-0.265625 -0.171875,0 -0.40625,0.140625 -0.40625,0.46875 0,0.34375 0.328125,0.609375 0.828125,0.609375 C 2.140625,1.421875 3,0.875 3.21875,0 Z m 0,0"
           id="path9099" />
      </symbol>
    </g>
    <g
       id="g3945">
      <symbol
         overflow="visible"
         id="symbol7570">
        <path
           style="stroke:none"
           d=""
           id="path2687" />
      </symbol>
      <symbol
         overflow="visible"
         id="symbol6796">
        <path
           style="stroke:none"
           d="m 5.15625,-3.71875 c 0.140625,0 0.5,0 0.5,-0.34375 0,-0.234375 -0.21875,-0.234375 -0.390625,-0.234375 h -2.28125 c -1.5,0 -2.609375,1.640625 -2.609375,2.828125 0,0.875 0.59375,1.578125 1.5,1.578125 1.171875,0 2.5,-1.203125 2.5,-2.734375 0,-0.171875 0,-0.65625 -0.3125,-1.09375 z M 1.890625,-0.109375 C 1.390625,-0.109375 1,-0.46875 1,-1.1875 c 0,-0.296875 0.109375,-1.109375 0.46875,-1.703125 0.421875,-0.6875 1.015625,-0.828125 1.359375,-0.828125 0.828125,0 0.90625,0.65625 0.90625,0.96875 0,0.46875 -0.203125,1.28125 -0.53125,1.796875 -0.390625,0.578125 -0.9375,0.84375 -1.3125,0.84375 z m 0,0"
           id="path1069" />
      </symbol>
      <symbol
         overflow="visible"
         id="symbol8026">
        <path
           style="stroke:none"
           d=""
           id="path6952" />
      </symbol>
      <symbol
         overflow="visible"
         id="symbol1195">
        <path
           style="stroke:none"
           d="m 1.71875,-2.75 h 0.703125 c 0.140625,0 0.21875,0 0.21875,-0.15625 C 2.640625,-3 2.5625,-3 2.4375,-3 H 1.78125 l 0.25,-1.03125 C 2.046875,-4.0625 2.0625,-4.109375 2.0625,-4.125 c 0,-0.140625 -0.109375,-0.234375 -0.25,-0.234375 -0.171875,0 -0.265625,0.125 -0.328125,0.296875 C 1.4375,-3.875 1.53125,-4.21875 1.21875,-3 H 0.515625 c -0.125,0 -0.21875,0 -0.21875,0.15625 C 0.296875,-2.75 0.375,-2.75 0.5,-2.75 H 1.15625 L 0.75,-1.109375 C 0.703125,-0.9375 0.640625,-0.6875 0.640625,-0.59375 c 0,0.40625 0.359375,0.65625 0.75,0.65625 0.78125,0 1.21875,-0.96875 1.21875,-1.0625 0,-0.09375 -0.09375,-0.09375 -0.109375,-0.09375 -0.09375,0 -0.09375,0.015625 -0.15625,0.140625 -0.1875,0.4375 -0.546875,0.828125 -0.921875,0.828125 -0.15625,0 -0.25,-0.09375 -0.25,-0.34375 0,-0.0625 0.03125,-0.21875 0.046875,-0.28125 z m 0,0"
           id="path6176" />
      </symbol>
    </g>
    <g
       id="g7579">
      <symbol
         overflow="visible"
         id="symbol1269">
        <path
           style="stroke:none"
           d=""
           id="path8335" />
      </symbol>
      <symbol
         overflow="visible"
         id="symbol6147">
        <path
           style="stroke:none"
           d="m 5.15625,-3.71875 c 0.140625,0 0.5,0 0.5,-0.34375 0,-0.234375 -0.21875,-0.234375 -0.390625,-0.234375 h -2.28125 c -1.5,0 -2.609375,1.640625 -2.609375,2.828125 0,0.875 0.59375,1.578125 1.5,1.578125 1.171875,0 2.5,-1.203125 2.5,-2.734375 0,-0.171875 0,-0.65625 -0.3125,-1.09375 z M 1.890625,-0.109375 C 1.390625,-0.109375 1,-0.46875 1,-1.1875 c 0,-0.296875 0.109375,-1.109375 0.46875,-1.703125 0.421875,-0.6875 1.015625,-0.828125 1.359375,-0.828125 0.828125,0 0.90625,0.65625 0.90625,0.96875 0,0.46875 -0.203125,1.28125 -0.53125,1.796875 -0.390625,0.578125 -0.9375,0.84375 -1.3125,0.84375 z m 0,0"
           id="path5104" />
      </symbol>
      <symbol
         overflow="visible"
         id="symbol9506">
        <path
           style="stroke:none"
           d=""
           id="path3970" />
      </symbol>
      <symbol
         overflow="visible"
         id="symbol7910">
        <path
           style="stroke:none"
           d="m 1.84375,-4.625 c 0,-0.015625 0.03125,-0.109375 0.03125,-0.109375 0,-0.046875 -0.03125,-0.109375 -0.125,-0.109375 -0.140625,0 -0.71875,0.0625 -0.890625,0.078125 -0.046875,0 -0.15625,0.015625 -0.15625,0.15625 0,0.09375 0.109375,0.09375 0.1875,0.09375 0.328125,0 0.328125,0.0625 0.328125,0.109375 0,0.046875 -0.0625,0.328125 -0.109375,0.484375 l -0.15625,0.640625 c -0.0625,0.25 -0.4375,1.765625 -0.453125,1.859375 -0.046875,0.171875 -0.046875,0.265625 -0.046875,0.34375 0,0.703125 0.453125,1.140625 1.03125,1.140625 0.875,0 1.796875,-0.9375 1.796875,-1.96875 0,-0.8125 -0.5625,-1.171875 -1.046875,-1.171875 -0.359375,0 -0.671875,0.203125 -0.875,0.390625 z m -0.359375,4.5 c -0.328125,0 -0.53125,-0.296875 -0.53125,-0.71875 0,-0.25 0.0625,-0.484375 0.265625,-1.28125 C 1.25,-2.25 1.25,-2.265625 1.390625,-2.421875 1.65625,-2.71875 1.96875,-2.875 2.21875,-2.875 c 0.265625,0 0.5,0.203125 0.5,0.671875 0,0.28125 -0.140625,1 -0.359375,1.40625 C 2.1875,-0.453125 1.84375,-0.125 1.484375,-0.125 Z m 0,0"
           id="path7063" />
      </symbol>
    </g>
    <rect
       x="47.625"
       y="84.666664"
       width="121.70833"
       height="42.333332"
       id="rect11362-0" />
    <rect
       x="47.625"
       y="84.666664"
       width="121.70833"
       height="42.333332"
       id="rect11375" />
    <g
       id="g1317">
      <symbol
         overflow="visible"
         id="symbol6767">
        <path
           style="stroke:none;"
           d=""
           id="path1142" />
      </symbol>
      <symbol
         overflow="visible"
         id="symbol7862">
        <path
           style="stroke:none;"
           d="M 3.890625 -4 C 3.984375 -4.109375 3.984375 -4.125 3.984375 -4.171875 C 3.984375 -4.296875 3.890625 -4.296875 3.71875 -4.296875 L 0.53125 -4.296875 L 0.421875 -2.6875 L 0.671875 -2.6875 C 0.734375 -3.703125 0.921875 -4.078125 2.015625 -4.078125 L 3.15625 -4.078125 L 0.375 -0.3125 C 0.28125 -0.203125 0.28125 -0.1875 0.28125 -0.140625 C 0.28125 0 0.34375 0 0.53125 0 L 3.828125 0 L 4 -1.859375 L 3.75 -1.859375 C 3.65625 -0.6875 3.453125 -0.25 2.296875 -0.25 L 1.109375 -0.25 Z M 3.890625 -4 "
           id="path9762" />
      </symbol>
      <symbol
         overflow="visible"
         id="symbol5058">
        <path
           style="stroke:none;"
           d="M 6.84375 -3.265625 C 7 -3.265625 7.1875 -3.265625 7.1875 -3.453125 C 7.1875 -3.65625 7 -3.65625 6.859375 -3.65625 L 0.890625 -3.65625 C 0.75 -3.65625 0.5625 -3.65625 0.5625 -3.453125 C 0.5625 -3.265625 0.75 -3.265625 0.890625 -3.265625 Z M 6.859375 -1.328125 C 7 -1.328125 7.1875 -1.328125 7.1875 -1.53125 C 7.1875 -1.71875 7 -1.71875 6.84375 -1.71875 L 0.890625 -1.71875 C 0.75 -1.71875 0.5625 -1.71875 0.5625 -1.53125 C 0.5625 -1.328125 0.75 -1.328125 0.890625 -1.328125 Z M 6.859375 -1.328125 "
           id="path6341" />
      </symbol>
      <symbol
         overflow="visible"
         id="symbol4084">
        <path
           style="stroke:none;"
           d="M 4.578125 -3.1875 C 4.578125 -3.984375 4.53125 -4.78125 4.1875 -5.515625 C 3.734375 -6.484375 2.90625 -6.640625 2.5 -6.640625 C 1.890625 -6.640625 1.171875 -6.375 0.75 -5.453125 C 0.4375 -4.765625 0.390625 -3.984375 0.390625 -3.1875 C 0.390625 -2.4375 0.421875 -1.546875 0.84375 -0.78125 C 1.265625 0.015625 2 0.21875 2.484375 0.21875 C 3.015625 0.21875 3.78125 0.015625 4.21875 -0.9375 C 4.53125 -1.625 4.578125 -2.40625 4.578125 -3.1875 Z M 2.484375 0 C 2.09375 0 1.5 -0.25 1.328125 -1.203125 C 1.21875 -1.796875 1.21875 -2.71875 1.21875 -3.3125 C 1.21875 -3.953125 1.21875 -4.609375 1.296875 -5.140625 C 1.484375 -6.328125 2.234375 -6.421875 2.484375 -6.421875 C 2.8125 -6.421875 3.46875 -6.234375 3.65625 -5.25 C 3.765625 -4.6875 3.765625 -3.9375 3.765625 -3.3125 C 3.765625 -2.5625 3.765625 -1.890625 3.65625 -1.25 C 3.5 -0.296875 2.9375 0 2.484375 0 Z M 2.484375 0 "
           id="path5227" />
      </symbol>
    </g>
  </defs>
  <sodipodi:namedview
     id="base"
     pagecolor="#ffffff"
     bordercolor="#666666"
     borderopacity="1.0"
     inkscape:pageopacity="0.0"
     inkscape:pageshadow="2"
     inkscape:zoom="0.98994949"
     inkscape:cx="310.62191"
     inkscape:cy="181.82746"
     inkscape:document-units="mm"
     inkscape:current-layer="layer1"
     inkscape:document-rotation="0"
     showgrid="true"
     inkscape:snap-grids="true"
     inkscape:snap-page="false"
     inkscape:snap-bbox="true"
     inkscape:window-width="1080"
     inkscape:window-height="1892"
     inkscape:window-x="0"
     inkscape:window-y="0"
     inkscape:window-maximized="1"
     inkscape:pagecheckerboard="0">
    <inkscape:grid
       type="xygrid"
       id="grid12"
       originx="28.227337"
       originy="-30.217503" />
  </sodipodi:namedview>
  <metadata
     id="metadata5">
    <rdf:RDF>
      <cc:Work
         rdf:about="">
        <dc:format>image/svg+xml</dc:format>
        <dc:type
           rdf:resource="http://purl.org/dc/dcmitype/StillImage" />
        <dc:title />
      </cc:Work>
    </rdf:RDF>
  </metadata>
  <g
     inkscape:label="Layer 1"
     inkscape:groupmode="layer"
     id="layer1"
     transform="translate(28.2273,-30.2175)">
    <path
       style="fill:none;stroke:#000000;stroke-width:0.965;stroke-linecap:butt;stroke-linejoin:miter;stroke-miterlimit:4;stroke-dasharray:0.965, 1.93;stroke-dashoffset:0;stroke-opacity:1"
       d="m 153.35775,50.013753 -0.16717,59.049897"
       id="path9272" />
    <path
       style="fill:none;stroke:#000000;stroke-width:0.965;stroke-linecap:butt;stroke-linejoin:miter;stroke-miterlimit:4;stroke-dasharray:0.965, 1.93;stroke-dashoffset:0;stroke-opacity:1"
       d="m 8.0040903,49.172188 -0.16717,59.049882"
       id="path9272-8" />
    <g
       sodipodi:type="inkscape:box3d"
       id="g7378"
       style="fill-rule:evenodd;stroke:none;stroke-linejoin:round"
       inkscape:perspectiveID="#perspective7376"
       inkscape:corner0="0.83883626 : 0.2340306 : 0 : 1"
       inkscape:corner7="0.65476836 : 0.22586143 : 0.1803754 : 1" />
    <path
       style="fill:none;stroke:#960000;stroke-width:3.365;stroke-linecap:round;stroke-linejoin:miter;stroke-miterlimit:4;stroke-dasharray:none;stroke-opacity:1"
       d="M 8.8952543,50.278333 H 153.50726"
       id="path8603" />
    <path
       style="fill:none;stroke:#008c00;stroke-width:3.365;stroke-linecap:round;stroke-linejoin:miter;stroke-miterlimit:4;stroke-dasharray:none;stroke-opacity:1"
       d="M 8.7457553,108.22242 H 153.35775"
       id="path8603-5" />
    <ellipse
       style="fill:url(#radialGradient8293-3-2);fill-opacity:1;stroke:none;stroke-width:4.24233;stroke-linecap:round;stroke-linejoin:round;stroke-miterlimit:4;stroke-dasharray:none;stroke-opacity:1;paint-order:stroke markers fill"
       id="path8269-92-7"
       cx="37.893414"
       cy="72.684593"
       rx="7.0706425"
       ry="6.9314938" />
    <ellipse
       style="fill:url(#radialGradient8293-3-2-0);fill-opacity:1;stroke:none;stroke-width:4.24233;stroke-linecap:round;stroke-linejoin:round;stroke-miterlimit:4;stroke-dasharray:none;stroke-opacity:1;paint-order:stroke markers fill"
       id="path8269-92-7-7"
       cx="96.677597"
       cy="84.401863"
       rx="7.0706425"
       ry="6.9314938" />
    <ellipse
       style="fill:url(#radialGradient8293-3-2-1);fill-opacity:1;stroke:none;stroke-width:4.24233;stroke-linecap:round;stroke-linejoin:round;stroke-miterlimit:4;stroke-dasharray:none;stroke-opacity:1;paint-order:stroke markers fill"
       id="path8269-92-7-72"
       cx="135.78918"
       cy="70.038765"
       rx="7.0706425"
       ry="6.9314938" />
    <ellipse
       style="fill:url(#radialGradient8293-3-2-2);fill-opacity:1;stroke:none;stroke-width:4.24233;stroke-linecap:round;stroke-linejoin:round;stroke-miterlimit:4;stroke-dasharray:none;stroke-opacity:1;paint-order:stroke markers fill"
       id="path8269-92-7-0"
       cx="76.25795"
       cy="64.936089"
       rx="7.0706425"
       ry="6.9314938" />
    <ellipse
       style="fill:url(#radialGradient8293-3-2-6);fill-opacity:1;stroke:none;stroke-width:4.24233;stroke-linecap:round;stroke-linejoin:round;stroke-miterlimit:4;stroke-dasharray:none;stroke-opacity:1;paint-order:stroke markers fill"
       id="path8269-92-7-9"
       cx="53.768414"
       cy="83.267921"
       rx="7.0706425"
       ry="6.9314938" />
    <ellipse
       style="fill:url(#radialGradient8293-3-2-4);fill-opacity:1;stroke:none;stroke-width:4.24233;stroke-linecap:round;stroke-linejoin:round;stroke-miterlimit:4;stroke-dasharray:none;stroke-opacity:1;paint-order:stroke markers fill"
       id="path8269-92-7-91"
       cx="144.27016"
       cy="93.344322"
       rx="7.0706425"
       ry="6.9314938" />
    <ellipse
       style="fill:url(#radialGradient8293-3-2-7);fill-opacity:1;stroke:none;stroke-width:4.24233;stroke-linecap:round;stroke-linejoin:round;stroke-miterlimit:4;stroke-dasharray:none;stroke-opacity:1;paint-order:stroke markers fill"
       id="path8269-92-7-1"
       cx="111.35755"
       cy="61.156727"
       rx="7.0706425"
       ry="6.9314938" />
    <path
       style="fill:#f200ef;fill-opacity:1;stroke:url(#linearGradient9180);stroke-width:3.065;stroke-linecap:round;stroke-linejoin:round;stroke-miterlimit:4;stroke-dasharray:none;stroke-opacity:1;paint-order:normal"
       d="M 8.3660863,50.013753 56.091664,31.750003"
       id="path9114" />
    <path
       style="fill:none;fill-opacity:1;stroke:url(#linearGradient9224);stroke-width:3.065;stroke-linecap:round;stroke-linejoin:round;stroke-miterlimit:4;stroke-dasharray:none;stroke-opacity:1;paint-order:normal"
       d="m 153.88692,50.013753 47.72557,-18.26375"
       id="path9114-3" />
    <path
       style="fill:none;fill-opacity:1;stroke:url(#linearGradient9254);stroke-width:3.065;stroke-linecap:round;stroke-linejoin:round;stroke-miterlimit:4;stroke-dasharray:none;stroke-opacity:1;paint-order:normal"
       d="M 7.8369203,108.22208 55.562498,89.958333"
       id="path9114-6" />
    <path
       style="fill:none;fill-opacity:1;stroke:url(#linearGradient9269);stroke-width:3.065;stroke-linecap:round;stroke-linejoin:round;stroke-miterlimit:4;stroke-dasharray:none;stroke-opacity:1;paint-order:normal"
       d="M 153.35775,108.22208 201.08333,89.958333"
       id="path9114-4" />
    <ellipse
       style="fill:url(#radialGradient8293-3-2-1-1);fill-opacity:1;stroke:none;stroke-width:4.24233;stroke-linecap:round;stroke-linejoin:round;stroke-miterlimit:4;stroke-dasharray:none;stroke-opacity:1;paint-order:stroke markers fill"
       id="path8269-92-7-72-3"
       cx="170.3123"
       cy="58.185032"
       rx="7.0706425"
       ry="6.9314938" />
    <path
       style="fill:none;stroke:#000000;stroke-width:0.465;stroke-linecap:butt;stroke-linejoin:miter;stroke-miterlimit:4;stroke-dasharray:none;stroke-opacity:1;marker-end:url(#Arrow2Lend)"
       d="M 7.9374999,116.41667 H 153.45833"
       id="path9365" />
    <g
       inkscape:label=""
       transform="matrix(1.6527346,0,0,1.6527346,-71.736871,-95.848449)"
       id="g9782"
       style="fill:#aa0000">
      <g
         id="g5740"
         style="fill:#aa0000">
        <g
           style="fill:#aa0000;fill-opacity:1"
           id="g3781">
          <use
             xlink:href="#symbol3809"
             x="91.925003"
             y="81.962997"
             id="use2800"
             width="100%"
             height="100%"
             style="fill:#aa0000" />
        </g>
        <g
           style="fill:#aa0000;fill-opacity:1"
           id="g1818">
          <use
             xlink:href="#symbol316"
             x="99.337997"
             y="81.962997"
             id="use9182"
             width="100%"
             height="100%"
             style="fill:#aa0000" />
        </g>
        <g
           style="fill:#aa0000;fill-opacity:1"
           id="g7784">
          <use
             xlink:href="#symbol3809"
             x="109.854"
             y="81.962997"
             id="use8211"
             width="100%"
             height="100%"
             style="fill:#aa0000" />
        </g>
        <g
           style="fill:#aa0000;fill-opacity:1"
           id="g1338">
          <use
             xlink:href="#symbol2354"
             x="114.5"
             y="83.457001"
             id="use7128"
             width="100%"
             height="100%"
             style="fill:#aa0000" />
        </g>
      </g>
    </g>
    <g
       inkscape:label=""
       transform="matrix(1.8561293,0,0,1.8561293,-94.239534,-25.079447)"
       id="g9945"
       style="fill:#008000">
      <g
         id="g1589"
         style="fill:#008000">
        <g
           style="fill:#008000;fill-opacity:1"
           id="g7489">
          <use
             xlink:href="#symbol6851"
             x="91.925003"
             y="81.962997"
             id="use1056"
             width="100%"
             height="100%"
             style="fill:#008000" />
        </g>
        <g
           style="fill:#008000;fill-opacity:1"
           id="g938">
          <use
             xlink:href="#symbol1977"
             x="99.337997"
             y="81.962997"
             id="use8534"
             width="100%"
             height="100%"
             style="fill:#008000" />
        </g>
        <g
           style="fill:#008000;fill-opacity:1"
           id="g782">
          <use
             xlink:href="#symbol6851"
             x="109.854"
             y="81.962997"
             id="use9230"
             width="100%"
             height="100%"
             style="fill:#008000" />
        </g>
        <g
           style="fill:#008000;fill-opacity:1"
           id="g434">
          <use
             xlink:href="#symbol1068"
             x="114.5"
             y="83.457001"
             id="use1118"
             width="100%"
             height="100%"
             style="fill:#008000" />
        </g>
      </g>
    </g>
    <g
       inkscape:label=""
       transform="matrix(1.7450252,0,0,1.7450252,-81.557462,-64.398117)"
       id="g10131"
       style="fill:#008000">
      <g
         id="g3392"
         style="fill:#0047f9;fill-opacity:1">
        <g
           style="fill:#0047f9;fill-opacity:1"
           id="g2427">
          <use
             xlink:href="#symbol4839"
             x="91.925003"
             y="81.962997"
             id="use3340"
             width="100%"
             height="100%"
             style="fill:#0047f9;fill-opacity:1" />
        </g>
        <g
           style="fill:#0047f9;fill-opacity:1"
           id="g4141">
          <use
             xlink:href="#symbol9401"
             x="99.337997"
             y="81.962997"
             id="use4938"
             width="100%"
             height="100%"
             style="fill:#0047f9;fill-opacity:1" />
        </g>
        <g
           style="fill:#0047f9;fill-opacity:1"
           id="g6949">
          <use
             xlink:href="#symbol4839"
             x="109.854"
             y="81.962997"
             id="use1907"
             width="100%"
             height="100%"
             style="fill:#0047f9;fill-opacity:1" />
        </g>
        <g
           style="fill:#0047f9;fill-opacity:1"
           id="g5741">
          <use
             xlink:href="#symbol5670"
             x="114.5"
             y="83.457001"
             id="use279"
             width="100%"
             height="100%"
             style="fill:#0047f9;fill-opacity:1" />
        </g>
      </g>
    </g>
    <g
       inkscape:label=""
       transform="translate(-118.09733,-29.247295)"
       id="g10338"
       style="fill:#aa0000">
      <g
         id="g2634"
         style="fill:#aa0000">
        <g
           style="fill:#aa0000;fill-opacity:1"
           id="g8518">
          <use
             xlink:href="#symbol6522"
             x="91.925003"
             y="81.962997"
             id="use1314"
             width="100%"
             height="100%"
             style="fill:#aa0000"
             transform="translate(11.484572,-0.18205127)" />
          <use
             xlink:href="#symbol3401"
             x="96.352379"
             y="81.962997"
             id="use938"
             width="100%"
             height="100%"
             style="fill:#aa0000"
             transform="translate(11.484572,-0.18205127)" />
          <use
             xlink:href="#symbol9263"
             x="104.10129"
             y="81.962997"
             id="use7116"
             width="100%"
             height="100%"
             style="fill:#aa0000"
             transform="translate(11.484572,-0.18205127)" />
        </g>
      </g>
    </g>
    <g
       inkscape:label=""
       transform="matrix(1.2013699,0,0,1.2013699,-98.666396,27.340589)"
       id="g10817">
      <g
         id="g1027">
        <g
           style="fill:#000000;fill-opacity:1"
           id="g6849">
          <use
             xlink:href="#symbol4904"
             x="91.925003"
             y="81.962997"
             id="use6905"
             width="100%"
             height="100%" />
        </g>
        <g
           style="fill:#000000;fill-opacity:1"
           id="g6160">
          <use
             xlink:href="#symbol2689"
             x="98.705002"
             y="83.457001"
             id="use1726"
             width="100%"
             height="100%" />
          <use
             xlink:href="#symbol3893"
             x="103.22263"
             y="83.457001"
             id="use1012"
             width="100%"
             height="100%" />
        </g>
      </g>
    </g>
    <g
       inkscape:label=""
       transform="matrix(1.4814953,0,0,1.4814953,-96.857142,-76.131859)"
       id="g11051"
       style="fill:#aa0000;stroke-width:0.999666;stroke-miterlimit:4;stroke-dasharray:none">
      <g
         id="g3566"
         style="fill:#aa0000;stroke-width:0.999666;stroke-miterlimit:4;stroke-dasharray:none">
        <g
           style="fill:#aa0000;fill-opacity:1;stroke-width:0.999666;stroke-miterlimit:4;stroke-dasharray:none"
           id="g1351">
          <use
             xlink:href="#symbol6796"
             x="91.925003"
             y="81.962997"
             id="use5724"
             width="100%"
             height="100%"
             style="fill:#aa0000;stroke-width:0.999666;stroke-miterlimit:4;stroke-dasharray:none" />
        </g>
        <g
           style="fill:#aa0000;fill-opacity:1;stroke-width:0.999666;stroke-miterlimit:4;stroke-dasharray:none"
           id="g4624">
          <use
             xlink:href="#symbol1195"
             x="97.617996"
             y="83.457001"
             id="use4982"
             width="100%"
             height="100%"
             style="fill:#aa0000;stroke-width:0.999666;stroke-miterlimit:4;stroke-dasharray:none" />
        </g>
      </g>
    </g>
    <g
       inkscape:label=""
       transform="matrix(1.3651772,0,0,1.3651772,-86.557245,-8.1606061)"
       id="g11282"
       style="fill:#008000">
      <g
         id="g5347"
         style="fill:#008000">
        <g
           style="fill:#008000;fill-opacity:1"
           id="g9126">
          <use
             xlink:href="#symbol6147"
             x="91.925003"
             y="81.962997"
             id="use9734"
             width="100%"
             height="100%"
             style="fill:#008000" />
        </g>
        <g
           style="fill:#008000;fill-opacity:1"
           id="g1263">
          <use
             xlink:href="#symbol7910"
             x="97.617996"
             y="83.457001"
             id="use1754"
             width="100%"
             height="100%"
             style="fill:#008000" />
        </g>
      </g>
    </g>
    <text
       xml:space="preserve"
       style="font-style:normal;font-variant:normal;font-weight:normal;font-stretch:normal;font-size:39.9999px;line-height:1.25;font-family:'CMU Sans Serif';-inkscape-font-specification:'CMU Sans Serif';font-variant-ligatures:normal;font-variant-position:normal;font-variant-caps:normal;font-variant-numeric:normal;font-variant-alternates:normal;font-variant-east-asian:normal;font-feature-settings:normal;font-variation-settings:normal;text-indent:0;text-align:start;text-decoration:none;text-decoration-line:none;text-decoration-style:solid;text-decoration-color:#000000;letter-spacing:normal;word-spacing:0px;text-transform:none;writing-mode:lr-tb;direction:ltr;text-orientation:mixed;dominant-baseline:auto;baseline-shift:baseline;white-space:pre;shape-inside:url(#rect9325-8);shape-padding:0;shape-margin:0;inline-size:0;opacity:1;vector-effect:none;fill:#000000;fill-opacity:1;stroke-width:3.77953;stroke-linecap:butt;stroke-linejoin:miter;stroke-miterlimit:4;stroke-dasharray:none;stroke-dashoffset:0;stroke-opacity:1;stop-color:#000000;stop-opacity:1"
       x="366.686"
       y="455.79211"
       id="text11445"
       transform="matrix(0.26458333,0,0,0.26458333,-28.227337,30.217503)" />
    <g
       inkscape:label=""
       transform="translate(-105.00971,28.668784)"
       id="g2306"
       style="fill:#008c00;fill-opacity:1">
      <g
         id="g5559"
         style="fill:#008c00;fill-opacity:1">
        <g
           style="fill:#008c00;fill-opacity:1"
           id="g2617">
          <use
             xlink:href="#symbol7862"
             x="91.925003"
             y="81.962997"
             id="use3886"
             width="100%"
             height="100%"
             style="fill:#008c00;fill-opacity:1" />
          <use
             xlink:href="#symbol5058"
             x="96.352379"
             y="81.962997"
             id="use9922"
             width="100%"
             height="100%"
             style="fill:#008c00;fill-opacity:1" />
          <use
             xlink:href="#symbol4084"
             x="104.10129"
             y="81.962997"
             id="use2601"
             width="100%"
             height="100%"
             style="fill:#008c00;fill-opacity:1" />
        </g>
      </g>
    </g>
  </g>
</svg>
