<?xml version="1.0" encoding="UTF-8" standalone="no"?>
<!-- Created with Inkscape (http://www.inkscape.org/) -->

<svg
   width="144.07004mm"
   height="50.184895mm"
   viewBox="0 0 144.07004 50.184895"
   version="1.1"
   id="svg5"
   sodipodi:docname="dpstokesspread.svg"
   inkscape:version="1.1 (c68e22c387, 2021-05-23)"
   xmlns:inkscape="http://www.inkscape.org/namespaces/inkscape"
   xmlns:sodipodi="http://sodipodi.sourceforge.net/DTD/sodipodi-0.dtd"
   xmlns:xlink="http://www.w3.org/1999/xlink"
   xmlns="http://www.w3.org/2000/svg"
   xmlns:svg="http://www.w3.org/2000/svg">
  <sodipodi:namedview
     id="namedview7"
     pagecolor="#ffffff"
     bordercolor="#666666"
     borderopacity="1.0"
     inkscape:pageshadow="2"
     inkscape:pageopacity="0.0"
     inkscape:pagecheckerboard="0"
     inkscape:document-units="mm"
     showgrid="false"
     inkscape:snap-object-midpoints="true"
     inkscape:zoom="1.7817059"
     inkscape:cx="266.03717"
     inkscape:cy="106.63937"
     inkscape:window-width="1920"
     inkscape:window-height="1052"
     inkscape:window-x="1080"
     inkscape:window-y="385"
     inkscape:window-maximized="1"
     inkscape:current-layer="layer1">
    <inkscape:grid
       type="xygrid"
       id="grid3979"
       originx="-18.520835"
       originy="-52.666124" />
  </sodipodi:namedview>
  <defs
     id="defs2">
    <linearGradient
       inkscape:collect="always"
       id="linearGradient2231">
      <stop
         style="stop-color:#0000ff;stop-opacity:1;"
         offset="0"
         id="stop2227" />
      <stop
         style="stop-color:#0000ff;stop-opacity:0;"
         offset="1"
         id="stop2229" />
    </linearGradient>
    <radialGradient
       inkscape:collect="always"
       xlink:href="#linearGradient2231"
       id="radialGradient2233"
       cx="77.208885"
       cy="91.713791"
       fx="77.208885"
       fy="91.713791"
       r="17.104982"
       gradientUnits="userSpaceOnUse"
       gradientTransform="matrix(1.2578903,0,0,1.328738,-10.91558,-30.149803)" />
    <radialGradient
       inkscape:collect="always"
       xlink:href="#linearGradient2231"
       id="radialGradient2233-5-2"
       cx="77.208885"
       cy="91.713791"
       fx="77.208885"
       fy="91.713791"
       r="17.104982"
       gradientUnits="userSpaceOnUse"
       gradientTransform="matrix(1.2578903,0,0,1.328738,19.88978,-63.571403)" />
    <clipPath
       clipPathUnits="userSpaceOnUse"
       id="clipPath3975">
      <rect
         style="fill:#ffffff;fill-opacity:1;stroke:#ffffff;stroke-width:0.765;stroke-linecap:round;stroke-linejoin:bevel;stroke-miterlimit:4;stroke-dasharray:none;stroke-opacity:0.999944"
         id="rect3977"
         width="60.812138"
         height="24.170118"
         x="84.883362"
         y="57.330189" />
    </clipPath>
    <g
       id="g7068">
      <symbol
         overflow="visible"
         id="symbol9708">
        <path
           style="stroke:none"
           d=""
           id="path1341" />
      </symbol>
      <symbol
         overflow="visible"
         id="symbol9570">
        <path
           style="stroke:none"
           d="m 3.890625,-4 c 0.09375,-0.109375 0.09375,-0.125 0.09375,-0.171875 0,-0.125 -0.09375,-0.125 -0.265625,-0.125 H 0.53125 L 0.421875,-2.6875 h 0.25 c 0.0625,-1.015625 0.25,-1.390625 1.34375,-1.390625 H 3.15625 L 0.375,-0.3125 C 0.28125,-0.203125 0.28125,-0.1875 0.28125,-0.140625 0.28125,0 0.34375,0 0.53125,0 H 3.828125 L 4,-1.859375 H 3.75 C 3.65625,-0.6875 3.453125,-0.25 2.296875,-0.25 h -1.1875 z m 0,0"
           id="path715" />
      </symbol>
      <symbol
         overflow="visible"
         id="symbol3331">
        <path
           style="stroke:none"
           d="m 6.84375,-3.265625 c 0.15625,0 0.34375,0 0.34375,-0.1875 C 7.1875,-3.65625 7,-3.65625 6.859375,-3.65625 h -5.96875 c -0.140625,0 -0.328125,0 -0.328125,0.203125 0,0.1875 0.1875,0.1875 0.328125,0.1875 z m 0.015625,1.9375 c 0.140625,0 0.328125,0 0.328125,-0.203125 0,-0.1875 -0.1875,-0.1875 -0.34375,-0.1875 H 0.890625 c -0.140625,0 -0.328125,0 -0.328125,0.1875 0,0.203125 0.1875,0.203125 0.328125,0.203125 z m 0,0"
           id="path4771" />
      </symbol>
      <symbol
         overflow="visible"
         id="symbol7818">
        <path
           style="stroke:none"
           d="m 4.578125,-3.1875 c 0,-0.796875 -0.046875,-1.59375 -0.390625,-2.328125 -0.453125,-0.96875 -1.28125,-1.125 -1.6875,-1.125 -0.609375,0 -1.328125,0.265625 -1.75,1.1875 -0.3125,0.6875 -0.359375,1.46875 -0.359375,2.265625 0,0.75 0.03125,1.640625 0.453125,2.40625 0.421875,0.796875 1.15625,1 1.640625,1 0.53125,0 1.296875,-0.203125 1.734375,-1.15625 0.3125,-0.6875 0.359375,-1.46875 0.359375,-2.25 z M 2.484375,0 C 2.09375,0 1.5,-0.25 1.328125,-1.203125 1.21875,-1.796875 1.21875,-2.71875 1.21875,-3.3125 c 0,-0.640625 0,-1.296875 0.078125,-1.828125 0.1875,-1.1875 0.9375,-1.28125 1.1875,-1.28125 0.328125,0 0.984375,0.1875 1.171875,1.171875 0.109375,0.5625 0.109375,1.3125 0.109375,1.9375 0,0.75 0,1.421875 -0.109375,2.0625 C 3.5,-0.296875 2.9375,0 2.484375,0 Z m 0,0"
           id="path8655" />
      </symbol>
    </g>
    <g
       id="g2650">
      <symbol
         overflow="visible"
         id="symbol429">
        <path
           style="stroke:none"
           d=""
           id="path7310" />
      </symbol>
      <symbol
         overflow="visible"
         id="symbol2693">
        <path
           style="stroke:none"
           d="m 3.890625,-4 c 0.09375,-0.109375 0.09375,-0.125 0.09375,-0.171875 0,-0.125 -0.09375,-0.125 -0.265625,-0.125 H 0.53125 L 0.421875,-2.6875 h 0.25 c 0.0625,-1.015625 0.25,-1.390625 1.34375,-1.390625 H 3.15625 L 0.375,-0.3125 C 0.28125,-0.203125 0.28125,-0.1875 0.28125,-0.140625 0.28125,0 0.34375,0 0.53125,0 H 3.828125 L 4,-1.859375 H 3.75 C 3.65625,-0.6875 3.453125,-0.25 2.296875,-0.25 h -1.1875 z m 0,0"
           id="path7726" />
      </symbol>
      <symbol
         overflow="visible"
         id="symbol7154">
        <path
           style="stroke:none"
           d="m 6.84375,-3.265625 c 0.15625,0 0.34375,0 0.34375,-0.1875 C 7.1875,-3.65625 7,-3.65625 6.859375,-3.65625 h -5.96875 c -0.140625,0 -0.328125,0 -0.328125,0.203125 0,0.1875 0.1875,0.1875 0.328125,0.1875 z m 0.015625,1.9375 c 0.140625,0 0.328125,0 0.328125,-0.203125 0,-0.1875 -0.1875,-0.1875 -0.34375,-0.1875 H 0.890625 c -0.140625,0 -0.328125,0 -0.328125,0.1875 0,0.203125 0.1875,0.203125 0.328125,0.203125 z m 0,0"
           id="path1177" />
      </symbol>
      <symbol
         overflow="visible"
         id="symbol597">
        <path
           style="stroke:none"
           d="M 6.109375,-6.03125 C 6.109375,-6.390625 6.125,-6.5 6.890625,-6.5 h 0.25 v -0.3125 c -0.359375,0.03125 -1.09375,0.03125 -1.46875,0.03125 -0.375,0 -1.125,0 -1.46875,-0.03125 V -6.5 H 4.4375 c 0.765625,0 0.78125,0.109375 0.78125,0.46875 v 2.328125 H 2.25 V -6.03125 C 2.25,-6.390625 2.265625,-6.5 3.03125,-6.5 h 0.234375 v -0.3125 c -0.34375,0.03125 -1.078125,0.03125 -1.46875,0.03125 -0.375,0 -1.125,0 -1.46875,-0.03125 V -6.5 H 0.5625 c 0.765625,0 0.796875,0.109375 0.796875,0.46875 v 5.25 c 0,0.359375 -0.03125,0.46875 -0.796875,0.46875 H 0.328125 V 0 c 0.34375,-0.03125 1.09375,-0.03125 1.46875,-0.03125 0.375,0 1.125,0 1.46875,0.03125 V -0.3125 H 3.03125 C 2.265625,-0.3125 2.25,-0.421875 2.25,-0.78125 v -2.609375 h 2.96875 v 2.609375 c 0,0.359375 -0.015625,0.46875 -0.78125,0.46875 H 4.203125 V 0 c 0.34375,-0.03125 1.078125,-0.03125 1.453125,-0.03125 0.390625,0 1.125,0 1.484375,0.03125 v -0.3125 h -0.25 c -0.765625,0 -0.78125,-0.109375 -0.78125,-0.46875 z m 0,0"
           id="path9460" />
      </symbol>
    </g>
    <radialGradient
       inkscape:collect="always"
       xlink:href="#linearGradient2231"
       id="radialGradient2233-5"
       cx="77.208885"
       cy="91.713791"
       fx="77.208885"
       fy="91.713791"
       r="17.104982"
       gradientUnits="userSpaceOnUse"
       gradientTransform="matrix(1.2578903,0,0,1.328738,-52.670299,-43.811512)" />
    <clipPath
       clipPathUnits="userSpaceOnUse"
       id="clipPath4335">
      <rect
         style="fill:#ffffff;fill-opacity:1;stroke:#ffffff;stroke-width:0.465;stroke-linecap:round;stroke-linejoin:bevel;stroke-miterlimit:4;stroke-dasharray:none;stroke-opacity:0.999944"
         id="rect4337"
         width="42.333332"
         height="15.87499"
         x="65.021049"
         y="84.326363"
         transform="scale(1,-1)" />
    </clipPath>
    <clipPath
       clipPathUnits="userSpaceOnUse"
       id="clipPath4455">
      <rect
         style="fill:#ffffff;fill-opacity:1;stroke:#ffffff;stroke-width:0.743611;stroke-linecap:round;stroke-linejoin:bevel;stroke-miterlimit:4;stroke-dasharray:none;stroke-opacity:0.999944"
         id="rect4457"
         width="36.785851"
         height="26.47818"
         x="68.219147"
         y="-100.18425"
         transform="scale(1,-1)" />
    </clipPath>
    <clipPath
       clipPathUnits="userSpaceOnUse"
       id="clipPath4573">
      <rect
         style="fill:#ffffff;fill-opacity:1;stroke:#ffffff;stroke-width:0.487704;stroke-linecap:round;stroke-linejoin:bevel;stroke-miterlimit:4;stroke-dasharray:none;stroke-opacity:0.999944"
         id="rect4575"
         width="54.546051"
         height="16.878792"
         x="87.007355"
         y="-73.805687" />
    </clipPath>
    <clipPath
       clipPathUnits="userSpaceOnUse"
       id="clipPath4765">
      <rect
         style="fill:#ffffff;fill-opacity:1;stroke:#ffffff;stroke-width:0.49281;stroke-linecap:round;stroke-linejoin:bevel;stroke-miterlimit:4;stroke-dasharray:none;stroke-opacity:0.999944"
         id="rect4767"
         width="44.443348"
         height="21.389589"
         x="93.726349"
         y="-78.567444"
         transform="scale(1,-1)" />
    </clipPath>
  </defs>
  <g
     inkscape:label="Layer 1"
     inkscape:groupmode="layer"
     id="layer1"
     transform="translate(-18.520833,-52.666122)">
    <circle
       style="fill:url(#radialGradient2233);fill-opacity:1;stroke:#000000;stroke-width:0.465;stroke-linecap:round;stroke-linejoin:bevel;stroke-miterlimit:4;stroke-dasharray:none;stroke-opacity:0.999944"
       id="path881"
       cx="86.204727"
       cy="91.713791"
       r="17.104982"
       clip-path="url(#clipPath4455)" />
    <circle
       style="fill:url(#radialGradient2233-5);fill-opacity:1;stroke:#000000;stroke-width:0.465;stroke-linecap:round;stroke-linejoin:bevel;stroke-miterlimit:4;stroke-dasharray:none;stroke-opacity:0.999944"
       id="path881-2"
       cx="44.450008"
       cy="78.052086"
       r="17.104982" />
    <circle
       style="fill:#ffffff;fill-opacity:1;stroke:none;stroke-width:0.765;stroke-linecap:round;stroke-linejoin:bevel;stroke-miterlimit:4;stroke-dasharray:none;stroke-opacity:0.999944"
       id="path881-0"
       cx="86.204727"
       cy="-109.10283"
       r="17.104982"
       transform="scale(1,-1)"
       clip-path="url(#clipPath4335)" />
    <path
       style="fill:none;stroke:#000000;stroke-width:0.751836;stroke-linecap:butt;stroke-linejoin:miter;stroke-miterlimit:4;stroke-dasharray:none;stroke-opacity:1"
       d="M 18.621484,100.40831 H 141.55208"
       id="path857" />
    <circle
       style="fill:url(#radialGradient2233-5-2);fill-opacity:1;stroke:#000000;stroke-width:0.465;stroke-linecap:round;stroke-linejoin:bevel;stroke-miterlimit:4;stroke-dasharray:none;stroke-opacity:0.999944"
       id="path881-6-8"
       cx="117.01009"
       cy="58.292179"
       r="17.104982"
       clip-path="url(#clipPath4765)" />
    <circle
       style="fill:#ffffff;fill-opacity:1;stroke:#ffffff;stroke-width:0.765;stroke-linecap:round;stroke-linejoin:bevel;stroke-miterlimit:4;stroke-dasharray:none;stroke-opacity:0.999944"
       id="path881-6"
       cx="117.01009"
       cy="-55.977715"
       r="17.104982"
       transform="scale(1,-1)"
       clip-path="url(#clipPath4573)" />
    <path
       style="fill:none;stroke:#000000;stroke-width:0.752141;stroke-linecap:butt;stroke-linejoin:miter;stroke-miterlimit:4;stroke-dasharray:none;stroke-opacity:1"
       d="M 18.520833,57.134947 H 141.55208"
       id="path857-9" />
    <circle
       style="fill:none;fill-opacity:1;stroke:#000000;stroke-width:0.465;stroke-linecap:round;stroke-linejoin:bevel;stroke-miterlimit:4;stroke-dasharray:none;stroke-opacity:0.999944"
       id="path881-6-8-2"
       cx="117.01009"
       cy="58.292179"
       r="17.104982"
       clip-path="url(#clipPath3975)" />
    <g
       inkscape:label=""
       transform="translate(50.776042,20.669271)"
       id="g4031">
      <g
         id="g2414">
        <g
           style="fill:#000000;fill-opacity:1"
           id="g6719">
          <use
             xlink:href="#symbol9570"
             x="91.925003"
             y="81.962997"
             id="use4381"
             width="100%"
             height="100%" />
          <use
             xlink:href="#symbol3331"
             x="96.352379"
             y="81.962997"
             id="use9707"
             width="100%"
             height="100%" />
          <use
             xlink:href="#symbol7818"
             x="104.10129"
             y="81.962997"
             id="use5968"
             width="100%"
             height="100%" />
        </g>
      </g>
    </g>
    <g
       inkscape:label=""
       transform="translate(51.348958,-22.484375)"
       id="g4149">
      <g
         id="g6542">
        <g
           style="fill:#000000;fill-opacity:1"
           id="g9607">
          <use
             xlink:href="#symbol2693"
             x="91.925003"
             y="81.962997"
             id="use4270"
             width="100%"
             height="100%" />
          <use
             xlink:href="#symbol7154"
             x="96.352379"
             y="81.962997"
             id="use9390"
             width="100%"
             height="100%" />
          <use
             xlink:href="#symbol597"
             x="104.10129"
             y="81.962997"
             id="use8797"
             width="100%"
             height="100%" />
        </g>
      </g>
    </g>
  </g>
</svg>
