<?xml version="1.0" encoding="UTF-8" standalone="no"?>
<!-- Created with Inkscape (http://www.inkscape.org/) -->

<svg
   width="70.995461mm"
   height="73.169357mm"
   viewBox="0 0 70.995461 73.169357"
   version="1.1"
   id="svg24887"
   sodipodi:docname="iterator.svg"
   inkscape:version="1.1 (c68e22c387, 2021-05-23)"
   xmlns:inkscape="http://www.inkscape.org/namespaces/inkscape"
   xmlns:sodipodi="http://sodipodi.sourceforge.net/DTD/sodipodi-0.dtd"
   xmlns:xlink="http://www.w3.org/1999/xlink"
   xmlns="http://www.w3.org/2000/svg"
   xmlns:svg="http://www.w3.org/2000/svg">
  <sodipodi:namedview
     id="namedview24889"
     pagecolor="#ffffff"
     bordercolor="#999999"
     borderopacity="1"
     inkscape:pageshadow="0"
     inkscape:pageopacity="0"
     inkscape:pagecheckerboard="0"
     inkscape:document-units="mm"
     showgrid="false"
     inkscape:zoom="1.1305638"
     inkscape:cx="302.9462"
     inkscape:cy="153.021"
     inkscape:window-width="1920"
     inkscape:window-height="1043"
     inkscape:window-x="0"
     inkscape:window-y="0"
     inkscape:window-maximized="1"
     inkscape:current-layer="layer1" />
  <defs
     id="defs24884">
    <marker
       style="overflow:visible"
       id="marker27776"
       refX="0"
       refY="0"
       orient="auto"
       inkscape:stockid="TriangleOutM"
       inkscape:isstock="true">
      <path
         transform="scale(0.4)"
         style="fill:context-stroke;fill-rule:evenodd;stroke:context-stroke;stroke-width:1pt"
         d="M 5.77,0 -2.88,5 V -5 Z"
         id="path27774" />
    </marker>
    <marker
       style="overflow:visible"
       id="TriangleOutM"
       refX="0"
       refY="0"
       orient="auto"
       inkscape:stockid="TriangleOutM"
       inkscape:isstock="true">
      <path
         transform="scale(0.4)"
         style="fill:context-stroke;fill-rule:evenodd;stroke:context-stroke;stroke-width:1pt"
         d="M 5.77,0 -2.88,5 V -5 Z"
         id="path27649" />
    </marker>
    <g
       id="g5416">
      <symbol
         overflow="visible"
         id="symbol415">
        <path
           style="stroke:none"
           d=""
           id="path1155" />
      </symbol>
      <symbol
         overflow="visible"
         id="symbol2081">
        <path
           style="stroke:none"
           d="M 2.234375,-3.515625 V -6.09375 c 0,-0.234375 0,-0.359375 0.21875,-0.390625 C 2.546875,-6.5 2.84375,-6.5 3.046875,-6.5 c 0.890625,0 2,0.046875 2,1.484375 0,0.6875 -0.234375,1.5 -1.703125,1.5 z m 2.109375,0.125 C 5.296875,-3.625 6.078125,-4.234375 6.078125,-5.015625 6.078125,-5.96875 4.9375,-6.8125 3.484375,-6.8125 H 0.34375 V -6.5 h 0.25 c 0.765625,0 0.78125,0.109375 0.78125,0.46875 v 5.25 c 0,0.359375 -0.015625,0.46875 -0.78125,0.46875 h -0.25 V 0 c 0.359375,-0.03125 1.078125,-0.03125 1.453125,-0.03125 0.390625,0 1.109375,0 1.46875,0.03125 v -0.3125 h -0.25 c -0.765625,0 -0.78125,-0.109375 -0.78125,-0.46875 V -3.296875 H 3.375 c 0.15625,0 0.578125,0 0.9375,0.34375 0.375,0.34375 0.375,0.65625 0.375,1.328125 0,0.640625 0,1.046875 0.40625,1.421875 0.40625,0.359375 0.953125,0.421875 1.25,0.421875 0.78125,0 0.953125,-0.8125 0.953125,-1.09375 0,-0.0625 0,-0.171875 -0.125,-0.171875 -0.109375,0 -0.109375,0.09375 -0.125,0.15625 C 6.984375,-0.171875 6.640625,0 6.390625,0 5.90625,0 5.828125,-0.515625 5.6875,-1.4375 L 5.546875,-2.234375 C 5.375,-2.875 4.890625,-3.203125 4.34375,-3.390625 Z m 0,0"
           id="path5307" />
      </symbol>
      <symbol
         overflow="visible"
         id="symbol7953">
        <path
           style="stroke:none"
           d="m 3.3125,-0.75 c 0.046875,0.390625 0.3125,0.8125 0.78125,0.8125 0.21875,0 0.828125,-0.140625 0.828125,-0.953125 v -0.5625 h -0.25 v 0.5625 c 0,0.578125 -0.25,0.640625 -0.359375,0.640625 -0.328125,0 -0.375,-0.453125 -0.375,-0.5 v -1.984375 c 0,-0.421875 0,-0.8125 -0.359375,-1.1875 C 3.1875,-4.3125 2.6875,-4.46875 2.21875,-4.46875 c -0.828125,0 -1.515625,0.46875 -1.515625,1.125 0,0.296875 0.203125,0.46875 0.46875,0.46875 0.28125,0 0.453125,-0.203125 0.453125,-0.453125 0,-0.125 -0.046875,-0.453125 -0.515625,-0.453125 C 1.390625,-4.140625 1.875,-4.25 2.1875,-4.25 c 0.5,0 1.0625,0.390625 1.0625,1.28125 v 0.359375 c -0.515625,0.03125 -1.203125,0.0625 -1.828125,0.359375 -0.75,0.34375 -1,0.859375 -1,1.296875 0,0.8125 0.96875,1.0625 1.59375,1.0625 0.65625,0 1.109375,-0.40625 1.296875,-0.859375 z M 3.25,-2.390625 v 1 c 0,0.9375 -0.71875,1.28125 -1.171875,1.28125 -0.484375,0 -0.890625,-0.34375 -0.890625,-0.84375 0,-0.546875 0.421875,-1.375 2.0625,-1.4375 z m 0,0"
           id="path4248" />
      </symbol>
      <symbol
         overflow="visible"
         id="symbol5496">
        <path
           style="stroke:none"
           d="M 1.09375,-3.421875 V -0.75 c 0,0.4375 -0.109375,0.4375 -0.78125,0.4375 V 0 c 0.359375,-0.015625 0.859375,-0.03125 1.140625,-0.03125 0.25,0 0.765625,0.015625 1.109375,0.03125 v -0.3125 c -0.671875,0 -0.78125,0 -0.78125,-0.4375 V -2.59375 C 1.78125,-3.625 2.5,-4.1875 3.125,-4.1875 c 0.640625,0 0.75,0.53125 0.75,1.109375 V -0.75 c 0,0.4375 -0.109375,0.4375 -0.78125,0.4375 V 0 c 0.34375,-0.015625 0.859375,-0.03125 1.125,-0.03125 0.25,0 0.78125,0.015625 1.109375,0.03125 v -0.3125 c -0.515625,0 -0.765625,0 -0.765625,-0.296875 v -1.90625 c 0,-0.859375 0,-1.15625 -0.3125,-1.515625 -0.140625,-0.171875 -0.46875,-0.375 -1.046875,-0.375 C 2.46875,-4.40625 2,-3.984375 1.71875,-3.359375 V -4.40625 L 0.3125,-4.296875 v 0.3125 c 0.703125,0 0.78125,0.0625 0.78125,0.5625 z m 0,0"
           id="path175" />
      </symbol>
      <symbol
         overflow="visible"
         id="symbol5488">
        <path
           style="stroke:none"
           d="m 3.78125,-0.546875 v 0.65625 L 5.25,0 v -0.3125 c -0.6875,0 -0.78125,-0.0625 -0.78125,-0.5625 V -6.921875 L 3.046875,-6.8125 V -6.5 c 0.6875,0 0.765625,0.0625 0.765625,0.5625 v 2.15625 c -0.28125,-0.359375 -0.71875,-0.625 -1.25,-0.625 -1.171875,0 -2.21875,0.984375 -2.21875,2.265625 0,1.265625 0.96875,2.25 2.109375,2.25 0.640625,0 1.078125,-0.34375 1.328125,-0.65625 z m 0,-2.671875 v 2.046875 c 0,0.171875 0,0.1875 -0.109375,0.359375 C 3.375,-0.328125 2.9375,-0.109375 2.5,-0.109375 2.046875,-0.109375 1.6875,-0.375 1.453125,-0.75 1.203125,-1.15625 1.171875,-1.71875 1.171875,-2.140625 1.171875,-2.5 1.1875,-3.09375 1.46875,-3.546875 1.6875,-3.859375 2.0625,-4.1875 2.609375,-4.1875 c 0.34375,0 0.765625,0.15625 1.0625,0.59375 0.109375,0.171875 0.109375,0.1875 0.109375,0.375 z m 0,0"
           id="path6888" />
      </symbol>
      <symbol
         overflow="visible"
         id="symbol2767">
        <path
           style="stroke:none"
           d="M 4.6875,-2.140625 C 4.6875,-3.40625 3.703125,-4.46875 2.5,-4.46875 c -1.25,0 -2.21875,1.09375 -2.21875,2.328125 0,1.296875 1.03125,2.25 2.203125,2.25 1.203125,0 2.203125,-0.984375 2.203125,-2.25 z m -2.1875,2 c -0.4375,0 -0.875,-0.203125 -1.140625,-0.671875 -0.25,-0.4375 -0.25,-1.046875 -0.25,-1.40625 0,-0.390625 0,-0.921875 0.234375,-1.359375 C 1.609375,-4.03125 2.078125,-4.25 2.484375,-4.25 c 0.4375,0 0.859375,0.21875 1.125,0.65625 0.265625,0.421875 0.265625,1 0.265625,1.375 0,0.359375 0,0.90625 -0.21875,1.34375 C 3.421875,-0.421875 2.984375,-0.140625 2.5,-0.140625 Z m 0,0"
           id="path2139" />
      </symbol>
      <symbol
         overflow="visible"
         id="symbol9265">
        <path
           style="stroke:none"
           d="M 1.09375,-3.421875 V -0.75 c 0,0.4375 -0.109375,0.4375 -0.78125,0.4375 V 0 c 0.359375,-0.015625 0.859375,-0.03125 1.140625,-0.03125 0.25,0 0.765625,0.015625 1.109375,0.03125 v -0.3125 c -0.671875,0 -0.78125,0 -0.78125,-0.4375 V -2.59375 C 1.78125,-3.625 2.5,-4.1875 3.125,-4.1875 c 0.640625,0 0.75,0.53125 0.75,1.109375 V -0.75 c 0,0.4375 -0.109375,0.4375 -0.78125,0.4375 V 0 c 0.34375,-0.015625 0.859375,-0.03125 1.125,-0.03125 0.25,0 0.78125,0.015625 1.109375,0.03125 v -0.3125 c -0.65625,0 -0.765625,0 -0.765625,-0.4375 v -1.84375 c 0,-1.03125 0.703125,-1.59375 1.34375,-1.59375 0.625,0 0.734375,0.53125 0.734375,1.109375 V -0.75 c 0,0.4375 -0.109375,0.4375 -0.78125,0.4375 V 0 c 0.34375,-0.015625 0.859375,-0.03125 1.125,-0.03125 0.265625,0 0.78125,0.015625 1.125,0.03125 v -0.3125 c -0.515625,0 -0.765625,0 -0.78125,-0.296875 v -1.90625 c 0,-0.859375 0,-1.15625 -0.3125,-1.515625 -0.140625,-0.171875 -0.46875,-0.375 -1.046875,-0.375 -0.828125,0 -1.28125,0.59375 -1.4375,0.984375 C 4.390625,-4.296875 3.65625,-4.40625 3.203125,-4.40625 2.46875,-4.40625 2,-3.984375 1.71875,-3.359375 V -4.40625 L 0.3125,-4.296875 v 0.3125 c 0.703125,0 0.78125,0.0625 0.78125,0.5625 z m 0,0"
           id="path6720" />
      </symbol>
      <symbol
         overflow="visible"
         id="symbol8327">
        <path
           style="stroke:none"
           d="m 3.96875,-6.9375 c -0.046875,-0.125 -0.078125,-0.203125 -0.234375,-0.203125 -0.15625,0 -0.1875,0.0625 -0.234375,0.203125 L 1.4375,-0.984375 C 1.25,-0.46875 0.859375,-0.3125 0.3125,-0.3125 V 0 c 0.234375,-0.015625 0.671875,-0.03125 1.015625,-0.03125 0.3125,0 0.828125,0.015625 1.15625,0.03125 v -0.3125 c -0.5,0 -0.75,-0.25 -0.75,-0.5 0,-0.03125 0.015625,-0.140625 0.015625,-0.15625 L 2.21875,-2.265625 H 4.671875 L 5.203125,-0.75 c 0.015625,0.046875 0.03125,0.109375 0.03125,0.140625 0,0.296875 -0.5625,0.296875 -0.828125,0.296875 V 0 c 0.359375,-0.03125 1.0625,-0.03125 1.4375,-0.03125 0.421875,0 0.890625,0.015625 1.296875,0.03125 V -0.3125 H 6.96875 C 6.375,-0.3125 6.234375,-0.375 6.125,-0.703125 Z m -0.53125,1.109375 1.125,3.25 H 2.328125 Z m 0,0"
           id="path6390" />
      </symbol>
      <symbol
         overflow="visible"
         id="symbol1219">
        <path
           style="stroke:none"
           d="m 1.171875,-2.171875 c 0,-1.625 0.8125,-2.046875 1.34375,-2.046875 0.09375,0 0.71875,0.015625 1.0625,0.375 -0.40625,0.03125 -0.46875,0.328125 -0.46875,0.453125 0,0.265625 0.1875,0.453125 0.453125,0.453125 0.265625,0 0.46875,-0.15625 0.46875,-0.46875 0,-0.671875 -0.765625,-1.0625 -1.53125,-1.0625 -1.25,0 -2.15625,1.078125 -2.15625,2.3125 0,1.28125 0.984375,2.265625 2.140625,2.265625 1.328125,0 1.65625,-1.203125 1.65625,-1.296875 0,-0.09375 -0.109375,-0.09375 -0.140625,-0.09375 -0.078125,0 -0.109375,0.03125 -0.125,0.09375 -0.28125,0.921875 -0.9375,1.046875 -1.296875,1.046875 -0.53125,0 -1.40625,-0.421875 -1.40625,-2.03125 z m 0,0"
           id="path6301" />
      </symbol>
      <symbol
         overflow="visible"
         id="symbol5864">
        <path
           style="stroke:none"
           d="M 1.109375,-2.515625 C 1.171875,-4 2.015625,-4.25 2.359375,-4.25 c 1.015625,0 1.125,1.34375 1.125,1.734375 z m 0,0.21875 h 2.78125 c 0.21875,0 0.25,0 0.25,-0.21875 0,-0.984375 -0.546875,-1.953125 -1.78125,-1.953125 -1.15625,0 -2.078125,1.03125 -2.078125,2.28125 0,1.328125 1.046875,2.296875 2.1875,2.296875 C 3.6875,0.109375 4.140625,-1 4.140625,-1.1875 4.140625,-1.28125 4.0625,-1.3125 4,-1.3125 c -0.078125,0 -0.109375,0.0625 -0.125,0.140625 -0.34375,1.03125 -1.25,1.03125 -1.34375,1.03125 -0.5,0 -0.890625,-0.296875 -1.125,-0.671875 -0.296875,-0.46875 -0.296875,-1.125 -0.296875,-1.484375 z m 0,0"
           id="path2075" />
      </symbol>
      <symbol
         overflow="visible"
         id="symbol1687">
        <path
           style="stroke:none"
           d="m 2.078125,-1.9375 c 0.21875,0.046875 1.03125,0.203125 1.03125,0.921875 0,0.5 -0.34375,0.90625 -1.125,0.90625 -0.84375,0 -1.203125,-0.5625 -1.390625,-1.421875 C 0.5625,-1.65625 0.5625,-1.6875 0.453125,-1.6875 c -0.125,0 -0.125,0.0625 -0.125,0.234375 V -0.125 c 0,0.171875 0,0.234375 0.109375,0.234375 0.046875,0 0.0625,-0.015625 0.25,-0.203125 0.015625,-0.015625 0.015625,-0.03125 0.203125,-0.21875 0.4375,0.40625 0.890625,0.421875 1.09375,0.421875 1.140625,0 1.609375,-0.671875 1.609375,-1.390625 0,-0.515625 -0.296875,-0.828125 -0.421875,-0.9375 C 2.84375,-2.546875 2.453125,-2.625 2.03125,-2.703125 1.46875,-2.8125 0.8125,-2.9375 0.8125,-3.515625 c 0,-0.359375 0.25,-0.765625 1.109375,-0.765625 1.09375,0 1.15625,0.90625 1.171875,1.203125 0,0.09375 0.09375,0.09375 0.109375,0.09375 0.140625,0 0.140625,-0.046875 0.140625,-0.234375 v -1.015625 c 0,-0.15625 0,-0.234375 -0.109375,-0.234375 -0.046875,0 -0.078125,0 -0.203125,0.125 -0.03125,0.03125 -0.125,0.125 -0.171875,0.15625 -0.375,-0.28125 -0.78125,-0.28125 -0.9375,-0.28125 -1.21875,0 -1.59375,0.671875 -1.59375,1.234375 0,0.34375 0.15625,0.625 0.421875,0.84375 0.328125,0.25 0.609375,0.3125 1.328125,0.453125 z m 0,0"
           id="path1222" />
      </symbol>
      <symbol
         overflow="visible"
         id="symbol8733">
        <path
           style="stroke:none"
           d="M 2.25,-6.03125 C 2.25,-6.390625 2.265625,-6.5 3.0625,-6.5 h 0.25 v -0.3125 c -0.34375,0.03125 -1.125,0.03125 -1.515625,0.03125 -0.375,0 -1.171875,0 -1.515625,-0.03125 V -6.5 h 0.25 c 0.796875,0 0.828125,0.109375 0.828125,0.46875 v 5.25 c 0,0.359375 -0.03125,0.46875 -0.828125,0.46875 h -0.25 V 0 c 0.34375,-0.03125 1.140625,-0.03125 1.515625,-0.03125 0.390625,0 1.171875,0 1.515625,0.03125 v -0.3125 h -0.25 C 2.265625,-0.3125 2.25,-0.421875 2.25,-0.78125 Z m 0,0"
           id="path8710" />
      </symbol>
      <symbol
         overflow="visible"
         id="symbol7259">
        <path
           style="stroke:none"
           d="m 1.71875,-3.984375 h 1.4375 v -0.3125 H 1.71875 V -6.125 h -0.25 c 0,0.8125 -0.296875,1.875 -1.28125,1.921875 v 0.21875 h 0.84375 v 2.75 c 0,1.21875 0.9375,1.34375 1.296875,1.34375 0.703125,0 0.984375,-0.703125 0.984375,-1.34375 v -0.5625 h -0.25 V -1.25 c 0,0.734375 -0.296875,1.109375 -0.671875,1.109375 -0.671875,0 -0.671875,-0.90625 -0.671875,-1.078125 z m 0,0"
           id="path2528" />
      </symbol>
      <symbol
         overflow="visible"
         id="symbol9990">
        <path
           style="stroke:none"
           d="M 1.671875,-3.3125 V -4.40625 L 0.28125,-4.296875 v 0.3125 c 0.703125,0 0.78125,0.0625 0.78125,0.5625 V -0.75 c 0,0.4375 -0.109375,0.4375 -0.78125,0.4375 V 0 c 0.390625,-0.015625 0.859375,-0.03125 1.140625,-0.03125 0.390625,0 0.859375,0 1.265625,0.03125 V -0.3125 H 2.46875 c -0.734375,0 -0.75,-0.109375 -0.75,-0.46875 V -2.3125 c 0,-0.984375 0.421875,-1.875 1.171875,-1.875 0.0625,0 0.09375,0 0.109375,0.015625 -0.03125,0 -0.234375,0.125 -0.234375,0.390625 0,0.265625 0.21875,0.421875 0.4375,0.421875 0.171875,0 0.421875,-0.125 0.421875,-0.4375 0,-0.3125 -0.3125,-0.609375 -0.734375,-0.609375 -0.734375,0 -1.09375,0.671875 -1.21875,1.09375 z m 0,0"
           id="path6420" />
      </symbol>
    </g>
    <g
       id="g3557">
      <symbol
         overflow="visible"
         id="symbol1757">
        <path
           style="stroke:none"
           d=""
           id="path4099" />
      </symbol>
      <symbol
         overflow="visible"
         id="symbol1175">
        <path
           style="stroke:none"
           d="m 5.796875,-6.78125 h -5.46875 v 0.3125 H 0.5625 c 0.765625,0 0.796875,0.109375 0.796875,0.46875 v 5.21875 c 0,0.359375 -0.03125,0.46875 -0.796875,0.46875 H 0.328125 V 0 c 0.34375,-0.03125 1.125,-0.03125 1.515625,-0.03125 0.40625,0 1.3125,0 1.671875,0.03125 V -0.3125 H 3.1875 C 2.25,-0.3125 2.25,-0.4375 2.25,-0.78125 v -2.453125 h 0.84375 c 0.96875,0 1.0625,0.3125 1.0625,1.15625 h 0.25 V -4.71875 h -0.25 c 0,0.84375 -0.09375,1.171875 -1.0625,1.171875 H 2.25 v -2.53125 c 0,-0.328125 0.015625,-0.390625 0.484375,-0.390625 h 1.1875 c 1.5,0 1.75,0.5625 1.90625,1.9375 h 0.25 z m 0,0"
           id="path7596" />
      </symbol>
      <symbol
         overflow="visible"
         id="symbol344">
        <path
           style="stroke:none"
           d="M 4.6875,-2.140625 C 4.6875,-3.40625 3.703125,-4.46875 2.5,-4.46875 c -1.25,0 -2.21875,1.09375 -2.21875,2.328125 0,1.296875 1.03125,2.25 2.203125,2.25 1.203125,0 2.203125,-0.984375 2.203125,-2.25 z m -2.1875,2 c -0.4375,0 -0.875,-0.203125 -1.140625,-0.671875 -0.25,-0.4375 -0.25,-1.046875 -0.25,-1.40625 0,-0.390625 0,-0.921875 0.234375,-1.359375 C 1.609375,-4.03125 2.078125,-4.25 2.484375,-4.25 c 0.4375,0 0.859375,0.21875 1.125,0.65625 0.265625,0.421875 0.265625,1 0.265625,1.375 0,0.359375 0,0.90625 -0.21875,1.34375 C 3.421875,-0.421875 2.984375,-0.140625 2.5,-0.140625 Z m 0,0"
           id="path9569" />
      </symbol>
      <symbol
         overflow="visible"
         id="symbol3268">
        <path
           style="stroke:none"
           d="M 1.671875,-3.3125 V -4.40625 L 0.28125,-4.296875 v 0.3125 c 0.703125,0 0.78125,0.0625 0.78125,0.5625 V -0.75 c 0,0.4375 -0.109375,0.4375 -0.78125,0.4375 V 0 c 0.390625,-0.015625 0.859375,-0.03125 1.140625,-0.03125 0.390625,0 0.859375,0 1.265625,0.03125 V -0.3125 H 2.46875 c -0.734375,0 -0.75,-0.109375 -0.75,-0.46875 V -2.3125 c 0,-0.984375 0.421875,-1.875 1.171875,-1.875 0.0625,0 0.09375,0 0.109375,0.015625 -0.03125,0 -0.234375,0.125 -0.234375,0.390625 0,0.265625 0.21875,0.421875 0.4375,0.421875 0.171875,0 0.421875,-0.125 0.421875,-0.4375 0,-0.3125 -0.3125,-0.609375 -0.734375,-0.609375 -0.734375,0 -1.09375,0.671875 -1.21875,1.09375 z m 0,0"
           id="path7329" />
      </symbol>
      <symbol
         overflow="visible"
         id="symbol3860">
        <path
           style="stroke:none"
           d="m 6.171875,-3.34375 c 0.171875,-0.5 0.484375,-0.640625 0.84375,-0.640625 v -0.3125 C 6.78125,-4.28125 6.5,-4.265625 6.28125,-4.265625 c -0.296875,0 -0.734375,-0.015625 -0.921875,-0.03125 v 0.3125 c 0.359375,0 0.578125,0.1875 0.578125,0.46875 0,0.0625 0,0.09375 -0.0625,0.21875 L 4.96875,-0.75 3.984375,-3.53125 C 3.953125,-3.65625 3.9375,-3.671875 3.9375,-3.71875 c 0,-0.265625 0.390625,-0.265625 0.59375,-0.265625 v -0.3125 c -0.296875,0.015625 -0.796875,0.03125 -1.046875,0.03125 -0.296875,0 -0.578125,-0.015625 -0.875,-0.03125 v 0.3125 c 0.359375,0 0.515625,0.015625 0.625,0.140625 0.046875,0.0625 0.15625,0.359375 0.21875,0.546875 L 2.609375,-0.875 1.65625,-3.53125 C 1.609375,-3.65625 1.609375,-3.671875 1.609375,-3.71875 1.609375,-3.984375 2,-3.984375 2.1875,-3.984375 v -0.3125 c -0.296875,0.015625 -0.859375,0.03125 -1.078125,0.03125 -0.046875,0 -0.578125,-0.015625 -0.9375,-0.03125 v 0.3125 c 0.5,0 0.625,0.03125 0.75,0.34375 l 1.25,3.53125 C 2.21875,0.03125 2.25,0.109375 2.375,0.109375 c 0.140625,0 0.15625,-0.0625 0.203125,-0.203125 l 1.015625,-2.8125 1.015625,2.828125 c 0.03125,0.109375 0.0625,0.1875 0.203125,0.1875 0.125,0 0.15625,-0.09375 0.1875,-0.1875 z m 0,0"
           id="path1006" />
      </symbol>
      <symbol
         overflow="visible"
         id="symbol1474">
        <path
           style="stroke:none"
           d="m 3.3125,-0.75 c 0.046875,0.390625 0.3125,0.8125 0.78125,0.8125 0.21875,0 0.828125,-0.140625 0.828125,-0.953125 v -0.5625 h -0.25 v 0.5625 c 0,0.578125 -0.25,0.640625 -0.359375,0.640625 -0.328125,0 -0.375,-0.453125 -0.375,-0.5 v -1.984375 c 0,-0.421875 0,-0.8125 -0.359375,-1.1875 C 3.1875,-4.3125 2.6875,-4.46875 2.21875,-4.46875 c -0.828125,0 -1.515625,0.46875 -1.515625,1.125 0,0.296875 0.203125,0.46875 0.46875,0.46875 0.28125,0 0.453125,-0.203125 0.453125,-0.453125 0,-0.125 -0.046875,-0.453125 -0.515625,-0.453125 C 1.390625,-4.140625 1.875,-4.25 2.1875,-4.25 c 0.5,0 1.0625,0.390625 1.0625,1.28125 v 0.359375 c -0.515625,0.03125 -1.203125,0.0625 -1.828125,0.359375 -0.75,0.34375 -1,0.859375 -1,1.296875 0,0.8125 0.96875,1.0625 1.59375,1.0625 0.65625,0 1.109375,-0.40625 1.296875,-0.859375 z M 3.25,-2.390625 v 1 c 0,0.9375 -0.71875,1.28125 -1.171875,1.28125 -0.484375,0 -0.890625,-0.34375 -0.890625,-0.84375 0,-0.546875 0.421875,-1.375 2.0625,-1.4375 z m 0,0"
           id="path8103" />
      </symbol>
      <symbol
         overflow="visible"
         id="symbol1972">
        <path
           style="stroke:none"
           d="m 3.78125,-0.546875 v 0.65625 L 5.25,0 v -0.3125 c -0.6875,0 -0.78125,-0.0625 -0.78125,-0.5625 V -6.921875 L 3.046875,-6.8125 V -6.5 c 0.6875,0 0.765625,0.0625 0.765625,0.5625 v 2.15625 c -0.28125,-0.359375 -0.71875,-0.625 -1.25,-0.625 -1.171875,0 -2.21875,0.984375 -2.21875,2.265625 0,1.265625 0.96875,2.25 2.109375,2.25 0.640625,0 1.078125,-0.34375 1.328125,-0.65625 z m 0,-2.671875 v 2.046875 c 0,0.171875 0,0.1875 -0.109375,0.359375 C 3.375,-0.328125 2.9375,-0.109375 2.5,-0.109375 2.046875,-0.109375 1.6875,-0.375 1.453125,-0.75 1.203125,-1.15625 1.171875,-1.71875 1.171875,-2.140625 1.171875,-2.5 1.1875,-3.09375 1.46875,-3.546875 1.6875,-3.859375 2.0625,-4.1875 2.609375,-4.1875 c 0.34375,0 0.765625,0.15625 1.0625,0.59375 0.109375,0.171875 0.109375,0.1875 0.109375,0.375 z m 0,0"
           id="path4447" />
      </symbol>
      <symbol
         overflow="visible"
         id="symbol5767">
        <path
           style="stroke:none"
           d="M 2.25,-6.03125 C 2.25,-6.390625 2.265625,-6.5 3.0625,-6.5 h 0.25 v -0.3125 c -0.34375,0.03125 -1.125,0.03125 -1.515625,0.03125 -0.375,0 -1.171875,0 -1.515625,-0.03125 V -6.5 h 0.25 c 0.796875,0 0.828125,0.109375 0.828125,0.46875 v 5.25 c 0,0.359375 -0.03125,0.46875 -0.828125,0.46875 h -0.25 V 0 c 0.34375,-0.03125 1.140625,-0.03125 1.515625,-0.03125 0.390625,0 1.171875,0 1.515625,0.03125 v -0.3125 h -0.25 C 2.265625,-0.3125 2.25,-0.421875 2.25,-0.78125 Z m 0,0"
           id="path1304" />
      </symbol>
      <symbol
         overflow="visible"
         id="symbol3639">
        <path
           style="stroke:none"
           d="m 1.71875,-3.984375 h 1.4375 v -0.3125 H 1.71875 V -6.125 h -0.25 c 0,0.8125 -0.296875,1.875 -1.28125,1.921875 v 0.21875 h 0.84375 v 2.75 c 0,1.21875 0.9375,1.34375 1.296875,1.34375 0.703125,0 0.984375,-0.703125 0.984375,-1.34375 v -0.5625 h -0.25 V -1.25 c 0,0.734375 -0.296875,1.109375 -0.671875,1.109375 -0.671875,0 -0.671875,-0.90625 -0.671875,-1.078125 z m 0,0"
           id="path9434" />
      </symbol>
      <symbol
         overflow="visible"
         id="symbol9216">
        <path
           style="stroke:none"
           d="M 1.109375,-2.515625 C 1.171875,-4 2.015625,-4.25 2.359375,-4.25 c 1.015625,0 1.125,1.34375 1.125,1.734375 z m 0,0.21875 h 2.78125 c 0.21875,0 0.25,0 0.25,-0.21875 0,-0.984375 -0.546875,-1.953125 -1.78125,-1.953125 -1.15625,0 -2.078125,1.03125 -2.078125,2.28125 0,1.328125 1.046875,2.296875 2.1875,2.296875 C 3.6875,0.109375 4.140625,-1 4.140625,-1.1875 4.140625,-1.28125 4.0625,-1.3125 4,-1.3125 c -0.078125,0 -0.109375,0.0625 -0.125,0.140625 -0.34375,1.03125 -1.25,1.03125 -1.34375,1.03125 -0.5,0 -0.890625,-0.296875 -1.125,-0.671875 -0.296875,-0.46875 -0.296875,-1.125 -0.296875,-1.484375 z m 0,0"
           id="path8695" />
      </symbol>
    </g>
    <g
       id="g2096">
      <symbol
         overflow="visible"
         id="symbol9681">
        <path
           style="stroke:none"
           d=""
           id="path9163" />
      </symbol>
      <symbol
         overflow="visible"
         id="symbol5626">
        <path
           style="stroke:none"
           d="m 2.21875,-3.65625 v -2.4375 C 2.21875,-6.4375 2.234375,-6.5 2.703125,-6.5 H 3.9375 c 0.96875,0 1.3125,0.84375 1.3125,1.375 0,0.640625 -0.484375,1.46875 -1.59375,1.46875 z M 4.5625,-3.5625 C 5.53125,-3.75 6.21875,-4.390625 6.21875,-5.125 6.21875,-5.984375 5.296875,-6.8125 4,-6.8125 H 0.359375 V -6.5 H 0.59375 c 0.765625,0 0.796875,0.109375 0.796875,0.46875 v 5.25 c 0,0.359375 -0.03125,0.46875 -0.796875,0.46875 H 0.359375 V 0 h 3.90625 c 1.328125,0 2.21875,-0.890625 2.21875,-1.828125 0,-0.859375 -0.8125,-1.609375 -1.921875,-1.734375 z m -0.609375,3.25 h -1.25 c -0.46875,0 -0.484375,-0.0625 -0.484375,-0.390625 v -2.71875 h 1.875 C 5.078125,-3.421875 5.5,-2.5 5.5,-1.828125 5.5,-1.125 4.96875,-0.3125 3.953125,-0.3125 Z m 0,0"
           id="path8644" />
      </symbol>
      <symbol
         overflow="visible"
         id="symbol5161">
        <path
           style="stroke:none"
           d="M 1.765625,-4.40625 0.375,-4.296875 v 0.3125 c 0.640625,0 0.734375,0.0625 0.734375,0.546875 V -0.75 c 0,0.4375 -0.109375,0.4375 -0.78125,0.4375 V 0 C 0.640625,-0.015625 1.1875,-0.03125 1.421875,-0.03125 1.78125,-0.03125 2.125,-0.015625 2.46875,0 v -0.3125 c -0.671875,0 -0.703125,-0.046875 -0.703125,-0.4375 z m 0.03125,-1.734375 c 0,-0.3125 -0.234375,-0.53125 -0.515625,-0.53125 -0.3125,0 -0.53125,0.265625 -0.53125,0.53125 0,0.265625 0.21875,0.53125 0.53125,0.53125 0.28125,0 0.515625,-0.21875 0.515625,-0.53125 z m 0,0"
           id="path7083" />
      </symbol>
      <symbol
         overflow="visible"
         id="symbol5779">
        <path
           style="stroke:none"
           d="m 3.78125,-0.546875 v 0.65625 L 5.25,0 v -0.3125 c -0.6875,0 -0.78125,-0.0625 -0.78125,-0.5625 V -6.921875 L 3.046875,-6.8125 V -6.5 c 0.6875,0 0.765625,0.0625 0.765625,0.5625 v 2.15625 c -0.28125,-0.359375 -0.71875,-0.625 -1.25,-0.625 -1.171875,0 -2.21875,0.984375 -2.21875,2.265625 0,1.265625 0.96875,2.25 2.109375,2.25 0.640625,0 1.078125,-0.34375 1.328125,-0.65625 z m 0,-2.671875 v 2.046875 c 0,0.171875 0,0.1875 -0.109375,0.359375 C 3.375,-0.328125 2.9375,-0.109375 2.5,-0.109375 2.046875,-0.109375 1.6875,-0.375 1.453125,-0.75 1.203125,-1.15625 1.171875,-1.71875 1.171875,-2.140625 1.171875,-2.5 1.1875,-3.09375 1.46875,-3.546875 1.6875,-3.859375 2.0625,-4.1875 2.609375,-4.1875 c 0.34375,0 0.765625,0.15625 1.0625,0.59375 0.109375,0.171875 0.109375,0.1875 0.109375,0.375 z m 0,0"
           id="path9060" />
      </symbol>
      <symbol
         overflow="visible"
         id="symbol820">
        <path
           style="stroke:none"
           d="M 1.671875,-3.3125 V -4.40625 L 0.28125,-4.296875 v 0.3125 c 0.703125,0 0.78125,0.0625 0.78125,0.5625 V -0.75 c 0,0.4375 -0.109375,0.4375 -0.78125,0.4375 V 0 c 0.390625,-0.015625 0.859375,-0.03125 1.140625,-0.03125 0.390625,0 0.859375,0 1.265625,0.03125 V -0.3125 H 2.46875 c -0.734375,0 -0.75,-0.109375 -0.75,-0.46875 V -2.3125 c 0,-0.984375 0.421875,-1.875 1.171875,-1.875 0.0625,0 0.09375,0 0.109375,0.015625 -0.03125,0 -0.234375,0.125 -0.234375,0.390625 0,0.265625 0.21875,0.421875 0.4375,0.421875 0.171875,0 0.421875,-0.125 0.421875,-0.4375 0,-0.3125 -0.3125,-0.609375 -0.734375,-0.609375 -0.734375,0 -1.09375,0.671875 -1.21875,1.09375 z m 0,0"
           id="path3386" />
      </symbol>
      <symbol
         overflow="visible"
         id="symbol1973">
        <path
           style="stroke:none"
           d="M 1.109375,-2.515625 C 1.171875,-4 2.015625,-4.25 2.359375,-4.25 c 1.015625,0 1.125,1.34375 1.125,1.734375 z m 0,0.21875 h 2.78125 c 0.21875,0 0.25,0 0.25,-0.21875 0,-0.984375 -0.546875,-1.953125 -1.78125,-1.953125 -1.15625,0 -2.078125,1.03125 -2.078125,2.28125 0,1.328125 1.046875,2.296875 2.1875,2.296875 C 3.6875,0.109375 4.140625,-1 4.140625,-1.1875 4.140625,-1.28125 4.0625,-1.3125 4,-1.3125 c -0.078125,0 -0.109375,0.0625 -0.125,0.140625 -0.34375,1.03125 -1.25,1.03125 -1.34375,1.03125 -0.5,0 -0.890625,-0.296875 -1.125,-0.671875 -0.296875,-0.46875 -0.296875,-1.125 -0.296875,-1.484375 z m 0,0"
           id="path3505" />
      </symbol>
      <symbol
         overflow="visible"
         id="symbol6862">
        <path
           style="stroke:none"
           d="m 1.171875,-2.171875 c 0,-1.625 0.8125,-2.046875 1.34375,-2.046875 0.09375,0 0.71875,0.015625 1.0625,0.375 -0.40625,0.03125 -0.46875,0.328125 -0.46875,0.453125 0,0.265625 0.1875,0.453125 0.453125,0.453125 0.265625,0 0.46875,-0.15625 0.46875,-0.46875 0,-0.671875 -0.765625,-1.0625 -1.53125,-1.0625 -1.25,0 -2.15625,1.078125 -2.15625,2.3125 0,1.28125 0.984375,2.265625 2.140625,2.265625 1.328125,0 1.65625,-1.203125 1.65625,-1.296875 0,-0.09375 -0.109375,-0.09375 -0.140625,-0.09375 -0.078125,0 -0.109375,0.03125 -0.125,0.09375 -0.28125,0.921875 -0.9375,1.046875 -1.296875,1.046875 -0.53125,0 -1.40625,-0.421875 -1.40625,-2.03125 z m 0,0"
           id="path6802" />
      </symbol>
      <symbol
         overflow="visible"
         id="symbol4687">
        <path
           style="stroke:none"
           d="m 1.71875,-3.984375 h 1.4375 v -0.3125 H 1.71875 V -6.125 h -0.25 c 0,0.8125 -0.296875,1.875 -1.28125,1.921875 v 0.21875 h 0.84375 v 2.75 c 0,1.21875 0.9375,1.34375 1.296875,1.34375 0.703125,0 0.984375,-0.703125 0.984375,-1.34375 v -0.5625 h -0.25 V -1.25 c 0,0.734375 -0.296875,1.109375 -0.671875,1.109375 -0.671875,0 -0.671875,-0.90625 -0.671875,-1.078125 z m 0,0"
           id="path1669" />
      </symbol>
      <symbol
         overflow="visible"
         id="symbol1932">
        <path
           style="stroke:none"
           d="M 4.6875,-2.140625 C 4.6875,-3.40625 3.703125,-4.46875 2.5,-4.46875 c -1.25,0 -2.21875,1.09375 -2.21875,2.328125 0,1.296875 1.03125,2.25 2.203125,2.25 1.203125,0 2.203125,-0.984375 2.203125,-2.25 z m -2.1875,2 c -0.4375,0 -0.875,-0.203125 -1.140625,-0.671875 -0.25,-0.4375 -0.25,-1.046875 -0.25,-1.40625 0,-0.390625 0,-0.921875 0.234375,-1.359375 C 1.609375,-4.03125 2.078125,-4.25 2.484375,-4.25 c 0.4375,0 0.859375,0.21875 1.125,0.65625 0.265625,0.421875 0.265625,1 0.265625,1.375 0,0.359375 0,0.90625 -0.21875,1.34375 C 3.421875,-0.421875 2.984375,-0.140625 2.5,-0.140625 Z m 0,0"
           id="path3084" />
      </symbol>
      <symbol
         overflow="visible"
         id="symbol4207">
        <path
           style="stroke:none"
           d="M 1.09375,-3.421875 V -0.75 c 0,0.4375 -0.109375,0.4375 -0.78125,0.4375 V 0 c 0.359375,-0.015625 0.859375,-0.03125 1.140625,-0.03125 0.25,0 0.765625,0.015625 1.109375,0.03125 v -0.3125 c -0.671875,0 -0.78125,0 -0.78125,-0.4375 V -2.59375 C 1.78125,-3.625 2.5,-4.1875 3.125,-4.1875 c 0.640625,0 0.75,0.53125 0.75,1.109375 V -0.75 c 0,0.4375 -0.109375,0.4375 -0.78125,0.4375 V 0 c 0.34375,-0.015625 0.859375,-0.03125 1.125,-0.03125 0.25,0 0.78125,0.015625 1.109375,0.03125 v -0.3125 c -0.515625,0 -0.765625,0 -0.765625,-0.296875 v -1.90625 c 0,-0.859375 0,-1.15625 -0.3125,-1.515625 -0.140625,-0.171875 -0.46875,-0.375 -1.046875,-0.375 C 2.46875,-4.40625 2,-3.984375 1.71875,-3.359375 V -4.40625 L 0.3125,-4.296875 v 0.3125 c 0.703125,0 0.78125,0.0625 0.78125,0.5625 z m 0,0"
           id="path9221" />
      </symbol>
      <symbol
         overflow="visible"
         id="symbol4907">
        <path
           style="stroke:none"
           d="m 3.3125,-0.75 c 0.046875,0.390625 0.3125,0.8125 0.78125,0.8125 0.21875,0 0.828125,-0.140625 0.828125,-0.953125 v -0.5625 h -0.25 v 0.5625 c 0,0.578125 -0.25,0.640625 -0.359375,0.640625 -0.328125,0 -0.375,-0.453125 -0.375,-0.5 v -1.984375 c 0,-0.421875 0,-0.8125 -0.359375,-1.1875 C 3.1875,-4.3125 2.6875,-4.46875 2.21875,-4.46875 c -0.828125,0 -1.515625,0.46875 -1.515625,1.125 0,0.296875 0.203125,0.46875 0.46875,0.46875 0.28125,0 0.453125,-0.203125 0.453125,-0.453125 0,-0.125 -0.046875,-0.453125 -0.515625,-0.453125 C 1.390625,-4.140625 1.875,-4.25 2.1875,-4.25 c 0.5,0 1.0625,0.390625 1.0625,1.28125 v 0.359375 c -0.515625,0.03125 -1.203125,0.0625 -1.828125,0.359375 -0.75,0.34375 -1,0.859375 -1,1.296875 0,0.8125 0.96875,1.0625 1.59375,1.0625 0.65625,0 1.109375,-0.40625 1.296875,-0.859375 z M 3.25,-2.390625 v 1 c 0,0.9375 -0.71875,1.28125 -1.171875,1.28125 -0.484375,0 -0.890625,-0.34375 -0.890625,-0.84375 0,-0.546875 0.421875,-1.375 2.0625,-1.4375 z m 0,0"
           id="path9942" />
      </symbol>
      <symbol
         overflow="visible"
         id="symbol4957">
        <path
           style="stroke:none"
           d="M 1.765625,-6.921875 0.328125,-6.8125 V -6.5 c 0.703125,0 0.78125,0.0625 0.78125,0.5625 V -0.75 c 0,0.4375 -0.109375,0.4375 -0.78125,0.4375 V 0 C 0.65625,-0.015625 1.1875,-0.03125 1.4375,-0.03125 c 0.25,0 0.734375,0.015625 1.109375,0.03125 v -0.3125 c -0.671875,0 -0.78125,0 -0.78125,-0.4375 z m 0,0"
           id="path7137" />
      </symbol>
      <symbol
         overflow="visible"
         id="symbol8652">
        <path
           style="stroke:none"
           d="M 2.25,-6.03125 C 2.25,-6.390625 2.265625,-6.5 3.0625,-6.5 h 0.25 v -0.3125 c -0.34375,0.03125 -1.125,0.03125 -1.515625,0.03125 -0.375,0 -1.171875,0 -1.515625,-0.03125 V -6.5 h 0.25 c 0.796875,0 0.828125,0.109375 0.828125,0.46875 v 5.25 c 0,0.359375 -0.03125,0.46875 -0.828125,0.46875 h -0.25 V 0 c 0.34375,-0.03125 1.140625,-0.03125 1.515625,-0.03125 0.390625,0 1.171875,0 1.515625,0.03125 v -0.3125 h -0.25 C 2.265625,-0.3125 2.25,-0.421875 2.25,-0.78125 Z m 0,0"
           id="path8861" />
      </symbol>
    </g>
    <g
       id="g2148">
      <symbol
         overflow="visible"
         id="symbol4167">
        <path
           style="stroke:none"
           d=""
           id="path5089" />
      </symbol>
      <symbol
         overflow="visible"
         id="symbol7249">
        <path
           style="stroke:none"
           d="M 2.25,-6.03125 C 2.25,-6.390625 2.265625,-6.5 3.0625,-6.5 h 0.25 v -0.3125 c -0.34375,0.03125 -1.125,0.03125 -1.515625,0.03125 -0.375,0 -1.171875,0 -1.515625,-0.03125 V -6.5 h 0.25 c 0.796875,0 0.828125,0.109375 0.828125,0.46875 v 5.25 c 0,0.359375 -0.03125,0.46875 -0.828125,0.46875 h -0.25 V 0 c 0.34375,-0.03125 1.140625,-0.03125 1.515625,-0.03125 0.390625,0 1.171875,0 1.515625,0.03125 v -0.3125 h -0.25 C 2.265625,-0.3125 2.25,-0.421875 2.25,-0.78125 Z m 0,0"
           id="path9475" />
      </symbol>
      <symbol
         overflow="visible"
         id="symbol2697">
        <path
           style="stroke:none"
           d="M 1.09375,-3.421875 V -0.75 c 0,0.4375 -0.109375,0.4375 -0.78125,0.4375 V 0 c 0.359375,-0.015625 0.859375,-0.03125 1.140625,-0.03125 0.25,0 0.765625,0.015625 1.109375,0.03125 v -0.3125 c -0.671875,0 -0.78125,0 -0.78125,-0.4375 V -2.59375 C 1.78125,-3.625 2.5,-4.1875 3.125,-4.1875 c 0.640625,0 0.75,0.53125 0.75,1.109375 V -0.75 c 0,0.4375 -0.109375,0.4375 -0.78125,0.4375 V 0 c 0.34375,-0.015625 0.859375,-0.03125 1.125,-0.03125 0.25,0 0.78125,0.015625 1.109375,0.03125 v -0.3125 c -0.515625,0 -0.765625,0 -0.765625,-0.296875 v -1.90625 c 0,-0.859375 0,-1.15625 -0.3125,-1.515625 -0.140625,-0.171875 -0.46875,-0.375 -1.046875,-0.375 C 2.46875,-4.40625 2,-3.984375 1.71875,-3.359375 V -4.40625 L 0.3125,-4.296875 v 0.3125 c 0.703125,0 0.78125,0.0625 0.78125,0.5625 z m 0,0"
           id="path7147" />
      </symbol>
      <symbol
         overflow="visible"
         id="symbol751">
        <path
           style="stroke:none"
           d="m 1.71875,-3.75 v -0.65625 l -1.4375,0.109375 v 0.3125 c 0.703125,0 0.78125,0.0625 0.78125,0.5 v 4.65625 C 1.0625,1.625 0.953125,1.625 0.28125,1.625 V 1.9375 C 0.625,1.921875 1.140625,1.90625 1.390625,1.90625 c 0.28125,0 0.78125,0.015625 1.125,0.03125 V 1.625 C 1.859375,1.625 1.75,1.625 1.75,1.171875 V -0.59375 c 0.046875,0.171875 0.46875,0.703125 1.21875,0.703125 1.1875,0 2.21875,-0.984375 2.21875,-2.265625 0,-1.265625 -0.953125,-2.25 -2.078125,-2.25 -0.78125,0 -1.203125,0.4375 -1.390625,0.65625 z M 1.75,-1.140625 v -2.21875 C 2.03125,-3.875 2.515625,-4.15625 3.03125,-4.15625 c 0.734375,0 1.328125,0.875 1.328125,2 0,1.203125 -0.6875,2.046875 -1.421875,2.046875 -0.40625,0 -0.78125,-0.203125 -1.046875,-0.609375 C 1.75,-0.921875 1.75,-0.9375 1.75,-1.140625 Z m 0,0"
           id="path2742" />
      </symbol>
      <symbol
         overflow="visible"
         id="symbol7836">
        <path
           style="stroke:none"
           d="M 3.890625,-0.78125 V 0.109375 L 5.328125,0 V -0.3125 C 4.640625,-0.3125 4.5625,-0.375 4.5625,-0.875 v -3.53125 l -1.46875,0.109375 v 0.3125 c 0.6875,0 0.78125,0.0625 0.78125,0.5625 v 1.765625 c 0,0.875 -0.484375,1.546875 -1.21875,1.546875 -0.828125,0 -0.875,-0.46875 -0.875,-0.984375 v -3.3125 L 0.3125,-4.296875 v 0.3125 c 0.78125,0 0.78125,0.03125 0.78125,0.90625 v 1.5 c 0,0.78125 0,1.6875 1.515625,1.6875 0.5625,0 1,-0.28125 1.28125,-0.890625 z m 0,0"
           id="path8646" />
      </symbol>
      <symbol
         overflow="visible"
         id="symbol8931">
        <path
           style="stroke:none"
           d="m 1.71875,-3.984375 h 1.4375 v -0.3125 H 1.71875 V -6.125 h -0.25 c 0,0.8125 -0.296875,1.875 -1.28125,1.921875 v 0.21875 h 0.84375 v 2.75 c 0,1.21875 0.9375,1.34375 1.296875,1.34375 0.703125,0 0.984375,-0.703125 0.984375,-1.34375 v -0.5625 h -0.25 V -1.25 c 0,0.734375 -0.296875,1.109375 -0.671875,1.109375 -0.671875,0 -0.671875,-0.90625 -0.671875,-1.078125 z m 0,0"
           id="path1890" />
      </symbol>
    </g>
    <g
       id="g5406">
      <symbol
         overflow="visible"
         id="symbol589">
        <path
           style="stroke:none"
           d=""
           id="path5510" />
      </symbol>
      <symbol
         overflow="visible"
         id="symbol1513">
        <path
           style="stroke:none"
           d="m 7.1875,-3.375 c 0,-2.03125 -1.5,-3.65625 -3.3125,-3.65625 -1.796875,0 -3.3125,1.59375 -3.3125,3.65625 0,2.046875 1.53125,3.59375 3.3125,3.59375 1.8125,0 3.3125,-1.578125 3.3125,-3.59375 z M 3.875,-0.046875 c -0.953125,0 -2.296875,-0.875 -2.296875,-3.46875 0,-2.578125 1.46875,-3.265625 2.296875,-3.265625 0.859375,0 2.28125,0.703125 2.28125,3.265625 0,2.640625 -1.359375,3.46875 -2.28125,3.46875 z m 0,0"
           id="path4169" />
      </symbol>
      <symbol
         overflow="visible"
         id="symbol1027">
        <path
           style="stroke:none"
           d="M 3.890625,-0.78125 V 0.109375 L 5.328125,0 V -0.3125 C 4.640625,-0.3125 4.5625,-0.375 4.5625,-0.875 v -3.53125 l -1.46875,0.109375 v 0.3125 c 0.6875,0 0.78125,0.0625 0.78125,0.5625 v 1.765625 c 0,0.875 -0.484375,1.546875 -1.21875,1.546875 -0.828125,0 -0.875,-0.46875 -0.875,-0.984375 v -3.3125 L 0.3125,-4.296875 v 0.3125 c 0.78125,0 0.78125,0.03125 0.78125,0.90625 v 1.5 c 0,0.78125 0,1.6875 1.515625,1.6875 0.5625,0 1,-0.28125 1.28125,-0.890625 z m 0,0"
           id="path4719" />
      </symbol>
      <symbol
         overflow="visible"
         id="symbol9165">
        <path
           style="stroke:none"
           d="m 1.71875,-3.984375 h 1.4375 v -0.3125 H 1.71875 V -6.125 h -0.25 c 0,0.8125 -0.296875,1.875 -1.28125,1.921875 v 0.21875 h 0.84375 v 2.75 c 0,1.21875 0.9375,1.34375 1.296875,1.34375 0.703125,0 0.984375,-0.703125 0.984375,-1.34375 v -0.5625 h -0.25 V -1.25 c 0,0.734375 -0.296875,1.109375 -0.671875,1.109375 -0.671875,0 -0.671875,-0.90625 -0.671875,-1.078125 z m 0,0"
           id="path8557" />
      </symbol>
      <symbol
         overflow="visible"
         id="symbol388">
        <path
           style="stroke:none"
           d="m 1.71875,-3.75 v -0.65625 l -1.4375,0.109375 v 0.3125 c 0.703125,0 0.78125,0.0625 0.78125,0.5 v 4.65625 C 1.0625,1.625 0.953125,1.625 0.28125,1.625 V 1.9375 C 0.625,1.921875 1.140625,1.90625 1.390625,1.90625 c 0.28125,0 0.78125,0.015625 1.125,0.03125 V 1.625 C 1.859375,1.625 1.75,1.625 1.75,1.171875 V -0.59375 c 0.046875,0.171875 0.46875,0.703125 1.21875,0.703125 1.1875,0 2.21875,-0.984375 2.21875,-2.265625 0,-1.265625 -0.953125,-2.25 -2.078125,-2.25 -0.78125,0 -1.203125,0.4375 -1.390625,0.65625 z M 1.75,-1.140625 v -2.21875 C 2.03125,-3.875 2.515625,-4.15625 3.03125,-4.15625 c 0.734375,0 1.328125,0.875 1.328125,2 0,1.203125 -0.6875,2.046875 -1.421875,2.046875 -0.40625,0 -0.78125,-0.203125 -1.046875,-0.609375 C 1.75,-0.921875 1.75,-0.9375 1.75,-1.140625 Z m 0,0"
           id="path2336" />
      </symbol>
    </g>
  </defs>
  <g
     inkscape:label="Layer 1"
     inkscape:groupmode="layer"
     id="layer1"
     transform="translate(-80.884017,-27.301506)">
    <g
       inkscape:label=""
       transform="translate(-10.042517,-25.499899)"
       id="g25232">
      <g
         id="g7689">
        <g
           style="fill:#000000;fill-opacity:1"
           id="g4266">
          <use
             xlink:href="#symbol2081"
             x="91.925003"
             y="81.962997"
             id="use8547"
             width="100%"
             height="100%" />
          <use
             xlink:href="#symbol7953"
             x="99.258469"
             y="81.962997"
             id="use5868"
             width="100%"
             height="100%" />
          <use
             xlink:href="#symbol5496"
             x="104.23977"
             y="81.962997"
             id="use5628"
             width="100%"
             height="100%" />
          <use
             xlink:href="#symbol5488"
             x="109.77499"
             y="81.962997"
             id="use3183"
             width="100%"
             height="100%" />
          <use
             xlink:href="#symbol2767"
             x="115.31021"
             y="81.962997"
             id="use4616"
             width="100%"
             height="100%" />
          <use
             xlink:href="#symbol9265"
             x="120.29151"
             y="81.962997"
             id="use7015"
             width="100%"
             height="100%" />
        </g>
        <g
           style="fill:#000000;fill-opacity:1"
           id="g2339">
          <use
             xlink:href="#symbol8327"
             x="131.91089"
             y="81.962997"
             id="use3511"
             width="100%"
             height="100%" />
          <use
             xlink:href="#symbol1219"
             x="139.38284"
             y="81.962997"
             id="use133"
             width="100%"
             height="100%" />
          <use
             xlink:href="#symbol1219"
             x="143.81023"
             y="81.962997"
             id="use6759"
             width="100%"
             height="100%" />
          <use
             xlink:href="#symbol5864"
             x="148.23759"
             y="81.962997"
             id="use9945"
             width="100%"
             height="100%" />
          <use
             xlink:href="#symbol1687"
             x="152.66498"
             y="81.962997"
             id="use4331"
             width="100%"
             height="100%" />
        </g>
        <g
           style="fill:#000000;fill-opacity:1"
           id="g1651">
          <use
             xlink:href="#symbol1687"
             x="156.60419"
             y="81.962997"
             id="use4827"
             width="100%"
             height="100%" />
        </g>
      </g>
    </g>
    <g
       inkscape:label=""
       transform="translate(4.2051308,18.39849)"
       id="g25472">
      <g
         id="g1467">
        <g
           style="fill:#000000;fill-opacity:1"
           id="g2464">
          <use
             xlink:href="#symbol1175"
             x="91.925003"
             y="81.962997"
             id="use3404"
             width="100%"
             height="100%" />
        </g>
        <g
           style="fill:#000000;fill-opacity:1"
           id="g7785">
          <use
             xlink:href="#symbol344"
             x="97.601692"
             y="81.962997"
             id="use1305"
             width="100%"
             height="100%" />
          <use
             xlink:href="#symbol3268"
             x="102.58299"
             y="81.962997"
             id="use6356"
             width="100%"
             height="100%" />
          <use
             xlink:href="#symbol3860"
             x="106.48534"
             y="81.962997"
             id="use5138"
             width="100%"
             height="100%" />
        </g>
        <g
           style="fill:#000000;fill-opacity:1"
           id="g9838">
          <use
             xlink:href="#symbol1474"
             x="113.40137"
             y="81.962997"
             id="use1571"
             width="100%"
             height="100%" />
          <use
             xlink:href="#symbol3268"
             x="118.38268"
             y="81.962997"
             id="use3599"
             width="100%"
             height="100%" />
          <use
             xlink:href="#symbol1972"
             x="122.28503"
             y="81.962997"
             id="use8439"
             width="100%"
             height="100%" />
        </g>
      </g>
    </g>
    <g
       inkscape:label=""
       transform="translate(-4.2074925,-3.6009931)"
       id="g25794">
      <g
         id="g4339">
        <g
           style="fill:#000000;fill-opacity:1"
           id="g3445">
          <use
             xlink:href="#symbol5626"
             x="91.925003"
             y="81.962997"
             id="use5896"
             width="100%"
             height="100%" />
          <use
             xlink:href="#symbol5161"
             x="98.981506"
             y="81.962997"
             id="use7452"
             width="100%"
             height="100%" />
          <use
             xlink:href="#symbol5779"
             x="101.74912"
             y="81.962997"
             id="use4397"
             width="100%"
             height="100%" />
          <use
             xlink:href="#symbol5161"
             x="107.28434"
             y="81.962997"
             id="use160"
             width="100%"
             height="100%" />
          <use
             xlink:href="#symbol820"
             x="110.05195"
             y="81.962997"
             id="use8488"
             width="100%"
             height="100%" />
          <use
             xlink:href="#symbol1973"
             x="113.9543"
             y="81.962997"
             id="use7127"
             width="100%"
             height="100%" />
          <use
             xlink:href="#symbol6862"
             x="118.38168"
             y="81.962997"
             id="use5663"
             width="100%"
             height="100%" />
          <use
             xlink:href="#symbol4687"
             x="122.80906"
             y="81.962997"
             id="use6641"
             width="100%"
             height="100%" />
          <use
             xlink:href="#symbol5161"
             x="126.68352"
             y="81.962997"
             id="use5498"
             width="100%"
             height="100%" />
          <use
             xlink:href="#symbol1932"
             x="129.45113"
             y="81.962997"
             id="use3909"
             width="100%"
             height="100%" />
          <use
             xlink:href="#symbol4207"
             x="134.43242"
             y="81.962997"
             id="use5750"
             width="100%"
             height="100%" />
          <use
             xlink:href="#symbol4907"
             x="139.96765"
             y="81.962997"
             id="use6607"
             width="100%"
             height="100%" />
          <use
             xlink:href="#symbol4957"
             x="144.94894"
             y="81.962997"
             id="use9517"
             width="100%"
             height="100%" />
        </g>
      </g>
    </g>
    <g
       inkscape:label=""
       transform="translate(-11.322236,-47.836365)"
       id="g26198">
      <g
         id="g2951">
        <g
           style="fill:#000000;fill-opacity:1"
           id="g1106">
          <use
             xlink:href="#symbol7249"
             x="91.925003"
             y="81.962997"
             id="use6139"
             width="100%"
             height="100%" />
          <use
             xlink:href="#symbol2697"
             x="95.522491"
             y="81.962997"
             id="use2267"
             width="100%"
             height="100%" />
          <use
             xlink:href="#symbol751"
             x="101.05772"
             y="81.962997"
             id="use4409"
             width="100%"
             height="100%" />
          <use
             xlink:href="#symbol7836"
             x="106.59293"
             y="81.962997"
             id="use2977"
             width="100%"
             height="100%" />
          <use
             xlink:href="#symbol8931"
             x="112.12816"
             y="81.962997"
             id="use9870"
             width="100%"
             height="100%" />
        </g>
      </g>
    </g>
    <g
       inkscape:label=""
       transform="translate(28.412951,-47.630241)"
       id="g26612">
      <g
         id="g2634">
        <g
           style="fill:#000000;fill-opacity:1"
           id="g2552">
          <use
             xlink:href="#symbol1513"
             x="91.925003"
             y="81.962997"
             id="use1177"
             width="100%"
             height="100%" />
          <use
             xlink:href="#symbol1027"
             x="99.673912"
             y="81.962997"
             id="use7017"
             width="100%"
             height="100%" />
          <use
             xlink:href="#symbol9165"
             x="105.20913"
             y="81.962997"
             id="use4605"
             width="100%"
             height="100%" />
          <use
             xlink:href="#symbol388"
             x="109.08359"
             y="81.962997"
             id="use9143"
             width="100%"
             height="100%" />
          <use
             xlink:href="#symbol1027"
             x="114.6188"
             y="81.962997"
             id="use1387"
             width="100%"
             height="100%" />
          <use
             xlink:href="#symbol9165"
             x="120.15403"
             y="81.962997"
             id="use4629"
             width="100%"
             height="100%" />
        </g>
      </g>
    </g>
    <path
       style="fill:none;stroke:#000000;stroke-width:1.265;stroke-linecap:butt;stroke-linejoin:miter;stroke-miterlimit:4;stroke-dasharray:none;stroke-opacity:1;marker-end:url(#TriangleOutM)"
       d="m 94.377686,38.528109 15.944304,7.198838"
       id="path27171" />
    <path
       style="fill:none;stroke:#000000;stroke-width:1.265;stroke-linecap:butt;stroke-linejoin:miter;stroke-miterlimit:4;stroke-dasharray:none;stroke-opacity:1;marker-end:url(#marker27776)"
       d="m 134.3286,38.429778 -15.9443,7.19884"
       id="path27171-7" />
    <path
       style="fill:none;stroke:#000000;stroke-width:1.2;stroke-linecap:butt;stroke-linejoin:miter;stroke-miterlimit:4;stroke-dasharray:none;stroke-opacity:1;marker-end:url(#TriangleOutM)"
       d="m 114.79012,59.771999 v 7.922064"
       id="path27395" />
    <path
       style="fill:none;stroke:#000000;stroke-width:1.2;stroke-linecap:butt;stroke-linejoin:miter;stroke-miterlimit:4;stroke-dasharray:none;stroke-opacity:1;marker-end:url(#TriangleOutM)"
       d="m 114.49079,81.459108 v 7.922064"
       id="path27395-8" />
  </g>
</svg>
